<svg xmlns="http://www.w3.org/2000/svg" viewBox="0 0 100 100">
        <defs>
            <radialGradient id="gradient0" cx="75%" cy="25%">
                <stop offset="10%" stop-color="#fff"></stop>
                <stop offset="95%" stop-color="#00f"></stop>
            </radialGradient>
            <radialGradient id="gradient1" cx="75%" cy="25%">
                <stop offset="10%" stop-color="#fff"></stop>
                <stop offset="95%" stop-color="#aaa"></stop>
            </radialGradient>
            <radialGradient id="gradient2" cx="75%" cy="25%">
                <stop offset="10%" stop-color="#fff"></stop>
                <stop offset="95%" stop-color="#000"></stop>
            </radialGradient>
        </defs>
    <circle cx="5" cy="5" r="4" fill="url(#gradient2)"></circle><circle cx="5" cy="15" r="4" fill="url(#gradient1)"></circle><circle cx="5" cy="25" r="4" fill="url(#gradient1)"></circle><circle cx="5" cy="35" r="4" fill="url(#gradient0)"></circle><circle cx="5" cy="45" r="4" fill="url(#gradient1)"></circle><circle cx="5" cy="55" r="4" fill="url(#gradient1)"></circle><circle cx="5" cy="65" r="4" fill="url(#gradient2)"></circle><circle cx="5" cy="75" r="4" fill="url(#gradient2)"></circle><circle cx="5" cy="85" r="4" fill="url(#gradient1)"></circle><circle cx="5" cy="95" r="4" fill="url(#gradient1)"></circle><circle cx="15" cy="5" r="4" fill="url(#gradient0)"></circle><circle cx="15" cy="15" r="4" fill="url(#gradient2)"></circle><circle cx="15" cy="25" r="4" fill="url(#gradient0)"></circle><circle cx="15" cy="35" r="4" fill="url(#gradient2)"></circle><circle cx="15" cy="45" r="4" fill="url(#gradient2)"></circle><circle cx="15" cy="55" r="4" fill="url(#gradient2)"></circle><circle cx="15" cy="65" r="4" fill="url(#gradient1)"></circle><circle cx="15" cy="75" r="4" fill="url(#gradient1)"></circle><circle cx="15" cy="85" r="4" fill="url(#gradient1)"></circle><circle cx="15" cy="95" r="4" fill="url(#gradient1)"></circle><circle cx="25" cy="5" r="4" fill="url(#gradient0)"></circle><circle cx="25" cy="15" r="4" fill="url(#gradient1)"></circle><circle cx="25" cy="25" r="4" fill="url(#gradient2)"></circle><circle cx="25" cy="35" r="4" fill="url(#gradient1)"></circle><circle cx="25" cy="45" r="4" fill="url(#gradient2)"></circle><circle cx="25" cy="55" r="4" fill="url(#gradient0)"></circle><circle cx="25" cy="65" r="4" fill="url(#gradient0)"></circle><circle cx="25" cy="75" r="4" fill="url(#gradient2)"></circle><circle cx="25" cy="85" r="4" fill="url(#gradient2)"></circle><circle cx="25" cy="95" r="4" fill="url(#gradient2)"></circle><circle cx="35" cy="5" r="4" fill="url(#gradient2)"></circle><circle cx="35" cy="15" r="4" fill="url(#gradient0)"></circle><circle cx="35" cy="25" r="4" fill="url(#gradient2)"></circle><circle cx="35" cy="35" r="4" fill="url(#gradient0)"></circle><circle cx="35" cy="45" r="4" fill="url(#gradient2)"></circle><circle cx="35" cy="55" r="4" fill="url(#gradient0)"></circle><circle cx="35" cy="65" r="4" fill="url(#gradient1)"></circle><circle cx="35" cy="75" r="4" fill="url(#gradient2)"></circle><circle cx="35" cy="85" r="4" fill="url(#gradient0)"></circle><circle cx="35" cy="95" r="4" fill="url(#gradient0)"></circle><circle cx="45" cy="5" r="4" fill="url(#gradient0)"></circle><circle cx="45" cy="15" r="4" fill="url(#gradient2)"></circle><circle cx="45" cy="25" r="4" fill="url(#gradient2)"></circle><circle cx="45" cy="35" r="4" fill="url(#gradient0)"></circle><circle cx="45" cy="45" r="4" fill="url(#gradient1)"></circle><circle cx="45" cy="55" r="4" fill="url(#gradient1)"></circle><circle cx="45" cy="65" r="4" fill="url(#gradient2)"></circle><circle cx="45" cy="75" r="4" fill="url(#gradient0)"></circle><circle cx="45" cy="85" r="4" fill="url(#gradient2)"></circle><circle cx="45" cy="95" r="4" fill="url(#gradient0)"></circle><circle cx="55" cy="5" r="4" fill="url(#gradient2)"></circle><circle cx="55" cy="15" r="4" fill="url(#gradient0)"></circle><circle cx="55" cy="25" r="4" fill="url(#gradient0)"></circle><circle cx="55" cy="35" r="4" fill="url(#gradient0)"></circle><circle cx="55" cy="45" r="4" fill="url(#gradient0)"></circle><circle cx="55" cy="55" r="4" fill="url(#gradient2)"></circle><circle cx="55" cy="65" r="4" fill="url(#gradient0)"></circle><circle cx="55" cy="75" r="4" fill="url(#gradient0)"></circle><circle cx="55" cy="85" r="4" fill="url(#gradient2)"></circle><circle cx="55" cy="95" r="4" fill="url(#gradient0)"></circle><circle cx="65" cy="5" r="4" fill="url(#gradient1)"></circle><circle cx="65" cy="15" r="4" fill="url(#gradient2)"></circle><circle cx="65" cy="25" r="4" fill="url(#gradient1)"></circle><circle cx="65" cy="35" r="4" fill="url(#gradient1)"></circle><circle cx="65" cy="45" r="4" fill="url(#gradient0)"></circle><circle cx="65" cy="55" r="4" fill="url(#gradient1)"></circle><circle cx="65" cy="65" r="4" fill="url(#gradient2)"></circle><circle cx="65" cy="75" r="4" fill="url(#gradient0)"></circle><circle cx="65" cy="85" r="4" fill="url(#gradient0)"></circle><circle cx="65" cy="95" r="4" fill="url(#gradient1)"></circle><circle cx="75" cy="5" r="4" fill="url(#gradient2)"></circle><circle cx="75" cy="15" r="4" fill="url(#gradient0)"></circle><circle cx="75" cy="25" r="4" fill="url(#gradient0)"></circle><circle cx="75" cy="35" r="4" fill="url(#gradient0)"></circle><circle cx="75" cy="45" r="4" fill="url(#gradient0)"></circle><circle cx="75" cy="55" r="4" fill="url(#gradient2)"></circle><circle cx="75" cy="65" r="4" fill="url(#gradient2)"></circle><circle cx="75" cy="75" r="4" fill="url(#gradient2)"></circle><circle cx="75" cy="85" r="4" fill="url(#gradient1)"></circle><circle cx="75" cy="95" r="4" fill="url(#gradient2)"></circle><circle cx="85" cy="5" r="4" fill="url(#gradient2)"></circle><circle cx="85" cy="15" r="4" fill="url(#gradient2)"></circle><circle cx="85" cy="25" r="4" fill="url(#gradient1)"></circle><circle cx="85" cy="35" r="4" fill="url(#gradient0)"></circle><circle cx="85" cy="45" r="4" fill="url(#gradient2)"></circle><circle cx="85" cy="55" r="4" fill="url(#gradient0)"></circle><circle cx="85" cy="65" r="4" fill="url(#gradient2)"></circle><circle cx="85" cy="75" r="4" fill="url(#gradient2)"></circle><circle cx="85" cy="85" r="4" fill="url(#gradient0)"></circle><circle cx="85" cy="95" r="4" fill="url(#gradient1)"></circle><circle cx="95" cy="5" r="4" fill="url(#gradient1)"></circle><circle cx="95" cy="15" r="4" fill="url(#gradient1)"></circle><circle cx="95" cy="25" r="4" fill="url(#gradient0)"></circle><circle cx="95" cy="35" r="4" fill="url(#gradient0)"></circle><circle cx="95" cy="45" r="4" fill="url(#gradient2)"></circle><circle cx="95" cy="55" r="4" fill="url(#gradient1)"></circle><circle cx="95" cy="65" r="4" fill="url(#gradient2)"></circle><circle cx="95" cy="75" r="4" fill="url(#gradient2)"></circle><circle cx="95" cy="85" r="4" fill="url(#gradient2)"></circle><circle cx="95" cy="95" r="4" fill="url(#gradient0)"></circle></svg>