<svg xmlns="http://www.w3.org/2000/svg" viewBox="-15 -9 55 22">
    <path stroke="#000" stroke-width=".1" d="M 35.5,8 35.5,3 M 35.36,2.64 30.36,-2.36 M 29.56,-2.22 27.56,1.78 M 28.22,1.56 26.22,0.56 M 26.5,0.9 25.5,-4.1 M 24.64,-4.36 19.64,0.64 M 20.1,0.5 15.1,-0.5 M 14.86,-0.48 4.86,2.52 M 5.26,2.58 0.38,-0.42 M 0.04,-0.5 -9.96,-1.5 M -10.5,-1 -10.5,8 M -10,8.5 35,8.5" />
    <circle cx="35" cy="3" r=".5" />
    <circle cx="30" cy="-2" r=".5" />
    <circle cx="25" cy="-4" r=".5" />
    <circle cx="15" cy="0" r=".5" />
    <circle cx="0" cy="0" r=".5" />
    <circle cx="-10" cy="-1" r=".5" />
    <circle cx="-10" cy="8" r=".5" />
    <circle cx="35" cy="8" r=".5" />
    <path fill="#aaa" d="M 35,3 30,-2 28,2 26,1 25,-4 20,1 15,0 5,3 0,0 -10,-1 -10,8 35,8" />
    <circle cx="4.3" cy="2" r=".5" />
    <circle cx="4.3" cy="2" r=".5" />
    <circle cx="4.3" cy="2" r=".5" />
    <circle cx="4.3" cy="2" r=".5" />
    <path fill="#00f" d="M 26.315,23.493 25.754,25.657 23.685,26.5" transform="translate(-20.7, -21.25)" />
    <path d="m 4,3 1,-1"/>
</svg>