<svg xmlns="http://www.w3.org/2000/svg" viewBox="0 0 268.751524 90.592704">
   <style>
   :not(.switch>*, .switch){
      pointer-events: none;
   }
   .switch>*, .switch {
      pointer-events: all;
      cursor: pointer;
   }
   .s1>*:hover{
      fill: #1af;
   }
   .s2>*:hover{
      fill: #ffa;
   }
   </style>
   <g opacity="0">
      <path id="folderpath" d="m 0,0 c 0,0.1152 -0.0458,0.22568 -0.12723,0.30715 -0.0815,0.0815 -0.19195,0.12723 -0.30714,0.12723 h -3.47502 c -0.1152,0 -0.22569,-0.0458 -0.30715,-0.12723 -0.0815,-0.0815 -0.12723,-0.19195 -0.12723,-0.30715 v -3.04063 c 0,-0.1152 0.0458,-0.22569 0.12723,-0.30716 0.0815,-0.0815 0.19195,-0.12722 0.30715,-0.12722 h 1.08594 l 0.43437,0.65156 h 1.95471 c 0.11519,0 0.22568,0.0458 0.30714,0.12723 0.0815,0.0815 0.12723,0.19194 0.12723,0.30715 z"/>
      <use id="folder" href="#folderpath" fill="none" stroke-width=".4" stroke-linecap="round" stroke-linejoin="round" stroke="#3f425b" />
      <use id="folderUp" href="#folderpath" fill="none" stroke-width=".4" stroke-linecap="round" stroke-linejoin="round" stroke="#fff" />
      <path id="py" fill="#028297" d="m 0,0 c -0.1269,-0.0141 -0.21678,-0.0308 -0.37393,-0.0699 -0.43913,-0.10863 -0.71146,-0.31081 -0.79656,-0.59137 -0.0149,-0.0492 -0.0183,-0.16569 -0.022,-0.755 -0.002,-0.44097 0,-0.73708 0.007,-0.80643 0.0205,-0.18805 0.0865,-0.32942 0.21257,-0.45514 0.0831,-0.0829 0.16409,-0.13404 0.27741,-0.17544 l 0.0831,-0.0304 0.84982,-0.005 0.84982,-0.005 0.0793,-0.0264 c 0.25322,-0.0846 0.45186,-0.25504 0.56044,-0.48124 0.0802,-0.16716 0.0827,-0.18384 0.09,-0.61905 l 0.006,-0.39093 0.27761,-0.003 c 0.15267,-0.002 0.3119,0.002 0.35384,0.008 0.31204,0.0479 0.50045,0.27763 0.61478,0.74952 0.0745,0.30754 0.10134,0.53823 0.0936,0.80257 -0.007,0.23937 -0.0317,0.37595 -0.11137,0.61806 -0.12958,0.39414 -0.26768,0.58544 -0.48049,0.66558 l -0.068,0.0256 -1.1331,0.005 -1.13309,0.005 -0.003,0.0878 -0.003,0.0878 h 0.69595 c 0.60497,0 0.6978,0.002 0.71008,0.017 0.011,0.013 0.0128,0.0892 0.008,0.32577 -0.004,0.27291 -0.008,0.31731 -0.0293,0.38241 -0.10021,0.31086 -0.43308,0.51103 -1.0188,0.61268 -0.15241,0.0264 -0.45633,0.0375 -0.59777,0.0217 z m 1.11475,-0.47811 c 0.0516,-0.0157 0.12489,-0.0836 0.15019,-0.13924 0.0407,-0.0893 0.0179,-0.22464 -0.0504,-0.29895 -0.0352,-0.0384 -0.13034,-0.0804 -0.1821,-0.0805 -0.10545,-2.3e-4 -0.2132,0.069 -0.25065,0.16116 -0.0483,0.1191 -0.004,0.26611 0.0998,0.33024 0.0817,0.0504 0.13633,0.0568 0.23325,0.0274 z m -3.15783,-1.08558 c -0.28142,-0.0741 -0.46977,-0.31034 -0.56802,-0.71265 -0.0736,-0.30109 -0.0857,-0.40131 -0.0854,-0.70354 2.2e-4,-0.23736 0.004,-0.29814 0.0257,-0.41925 0.0463,-0.25767 0.0881,-0.40507 0.15117,-0.53255 0.0517,-0.10467 0.0718,-0.13197 0.16751,-0.22703 0.12245,-0.12176 0.22836,-0.18364 0.39195,-0.22899 0.0901,-0.025 0.0965,-0.0253 1.13268,-0.0285 0.80215,-0.002 1.04405,-0.006 1.05077,-0.0172 0.0139,-0.0219 0.011,-0.13815 -0.004,-0.15313 -0.009,-0.009 -0.18301,-0.0136 -0.70797,-0.0136 h -0.69436 l -0.007,-0.03 c -0.0139,-0.0556 0.004,-0.67241 0.0227,-0.75379 0.0506,-0.2283 0.19526,-0.3612 0.48292,-0.44389 0.38736,-0.11132 1.11544,-0.13278 1.60765,-0.0474 0.35519,0.0616 0.61908,0.27768 0.70091,0.57386 0.0182,0.0657 0.0199,0.14191 0.0199,0.84276 0,0.86044 0.002,0.83081 -0.0811,1.00278 -0.0575,0.1183 -0.1915,0.25227 -0.3097,0.30967 -0.15912,0.0772 -0.13776,0.0757 -0.97432,0.0757 -0.45483,0 -0.7916,0.004 -0.84834,0.0118 -0.36229,0.0453 -0.64325,0.28137 -0.76179,0.63974 -0.0247,0.0749 -0.0266,0.10082 -0.0325,0.4759 l -0.006,0.39659 -0.29461,0.002 c -0.25919,0.002 -0.30456,-3.3e-4 -0.37742,-0.0195 z m 1.61265,-3.43907 c 0.14781,-0.092 0.16469,-0.30707 0.0332,-0.4228 -0.0837,-0.0738 -0.18467,-0.0891 -0.28265,-0.0428 -0.0676,0.0319 -0.0983,0.0631 -0.12936,0.1317 -0.0447,0.0985 -0.0256,0.21584 0.0478,0.29315 0.0568,0.0598 0.11411,0.0822 0.2019,0.078 0.0597,-0.002 0.086,-0.009 0.12911,-0.0371 z"/>
      <path id="md" d="m 0,0 c -0.24401,0 -0.44509,0.20108 -0.44509,0.44509 v 2.90788 c 0,0.24401 0.20108,0.44509 0.44509,0.44509 h 5.2817 c 0.24401,0 0.44508,-0.20108 0.44508,-0.44509 v -2.90788 c 0,-0.24401 -0.20107,-0.44509 -0.44508,-0.44509 z m 0,0.29671 h 5.2817 c 0.0847,0 0.14836,0.0636 0.14836,0.14838 v 2.90788 c 0,0.0847 -0.0636,0.14838 -0.14836,0.14838 h -5.2817 c -0.0848,0 -0.14837,-0.0636 -0.14837,-0.14838 v -2.90788 c 0,-0.0848 0.0636,-0.14838 0.14837,-0.14838 z m 0.44508,0.59346 v 2.01772 h 0.59346 v -1.15722 l 0.59344,0.74181 0.59345,-0.74181 v 1.15722 h 0.59345 v -2.01772 h -0.59345 l -0.59345,0.7418 -0.59344,-0.7418 z m 3.41233,0 v 1.03853 h -0.59343 l 0.89015,0.97919 0.89018,-0.97919 h -0.59345 v -1.03853 z" style="fill:#3f425b;stroke:none;stroke-width:0.00785084px" />
      <path id="txt" d="m 0,0 v 0.4861 h 4.37523 v -0.4861 z m 0,1.21539 v 0.48611 h 2.67385 v -0.48611 z m 0,1.21527 v 0.48612 h 4.37523 v -0.48612 z m 0,1.2154 v 0.4861 h 3.40302 v -0.4861 z" fill="#3f425b" />
      <path id="png" style="fill:none;stroke:#3f425b;stroke-width:.4" d="m 0,0 h 3.46124 c 0.27309,0 0.49446,-0.22137 0.49446,-0.49446 v -3.46124 c 0,-0.27307 -0.22137,-0.49446 -0.49446,-0.49446 h -3.46124 c -0.27307,0 -0.49446,0.22139 -0.49446,0.49446 v 3.46124 c 0,0.27309 0.22139,0.49446 0.49446,0.49446 z m 0,0 2.71955,-2.71954 1.23615,1.23616 m -2.71954,-1.60701 c 0,0.20481 -0.16604,0.37085 -0.37084,0.37085 -0.20482,0 -0.37086,-0.16604 -0.37086,-0.37085 0,-0.20481 0.16604,-0.37084 0.37086,-0.37084 0.2048,0 0.37084,0.16603 0.37084,0.37084 z"/>
   </g>
   <g fill="#1389ff" class="switch s1">
      <rect x="0" y="0" width="67.187881" height="10.065856" />
      <rect x="67.187897" y="0" width="67.187881" height="10.065856" />
      <rect x="134.37576" y="0" width="67.187881" height="10.065856" />
      <rect x="201.56363" y="0" width="67.187881" height="10.065856" />
   </g>
   <g fill="none" class="switch s2">
      <rect x="0" y="10.066146" height="10.065856" width="67.187881"/>
      <rect x="0" y="20.132002" height="10.065856" width="67.187881"/>
      <rect x="0" y="30.197859" height="10.065856" width="67.187881"/>
      <rect x="0" y="40.263718" height="10.065856" width="67.187881"/>
      <rect x="67.187897" y="10.066146" height="10.065856" width="67.187881"/>
      <rect x="67.187897" y="20.132002" height="10.065856" width="67.187881"/>
      <rect x="67.187897" y="30.197859" height="10.065856" width="67.187881"/>
      <rect x="67.187897" y="40.265121" height="10.065856" width="67.187881"/>
      <rect x="67.187897" y="50.329575" height="10.065856" width="67.187881"/>
      <rect x="67.187897" y="60.395432" height="10.065856" width="67.187881"/>
      <rect x="134.37576" y="10.066146" height="10.065856" width="67.187881"/>
      <rect x="134.37576" y="20.132002" height="10.065856" width="67.187881"/>
      <rect x="134.37576" y="30.197859" height="10.065856" width="67.187881"/>
      <rect x="134.37576" y="40.265152" height="10.065856" width="67.187881"/>
      <rect x="134.37579" y="50.329605" height="10.065856" width="67.187881"/>
      <rect x="134.37576" y="60.395462" height="10.065856" width="67.187881"/>
      <rect x="134.37576" y="70.461319" height="10.065856" width="67.187881"/>
      <rect x="201.56363" y="60.395432" height="10.065856" width="67.187881"/>
      <rect x="201.56363" y="50.329575" height="10.065856" width="67.187881"/>
      <rect x="201.56363" y="40.265121" height="10.065856" width="67.187881"/>
      <rect x="201.56363" y="70.461288" height="10.065856" width="67.187881"/>
      <rect x="201.56363" y="10.066146" height="10.065856" width="67.187881"/>
      <rect x="201.56363" y="30.197859" height="10.065856" width="67.187881"/>
      <rect x="201.56363" y="20.132002" height="10.065856" width="67.187881"/>
      <rect x="201.56363" y="80.527145" height="10.065856" width="67.187881"/>
   </g>
   <g fill="none" stroke-width=".4" stroke-linecap="round" stroke-linejoin="round">
      <g stroke="#fff">
         <path d="M 1.18121,4.3 2.62223,5.68412 4.01603,4.29033" />
         <path d="m 68.369,4.3 1.44102,1.44104 1.3938,-1.39379"/>
         <path d="m 135.55695,4.3 1.44102,1.44104 1.3938,-1.39379"/>
         <path d="m 202.74485,4.3 1.44102,1.44104 1.3938,-1.39379"/>
      </g>
      <g stroke="#3f425b">
         <path d="m 7.1900754,16.516474 1.44104,-1.44102 -1.39379,-1.3938"/>
         <path d="m 7.1900754,26.582334 1.44104,-1.44102 -1.39379,-1.3938"/>
         <path d="m 7.1900754,36.648184 1.44104,-1.44102 -1.39379,-1.3938"/>
         <path d="m 7.1900754,46.714044 1.44104,-1.44102 -1.39379,-1.3938"/>
         <path d="m 74.377945,16.516474 1.44104,-1.44102 -1.39379,-1.3938"/>
         <path d="m 141.56583,16.516484 1.44104,-1.44102 -1.39379,-1.3938"/>
         <path d="m 208.75372,16.516484 1.44104,-1.44102 -1.39379,-1.3938"/>
      </g>
   </g>
   <g font-size="4.22728348px" line-height="1.25" font-family="'Yu Gothic'">
      <g fill="#fff" stroke="#fff" stroke-width=".05">
         <text x="16" y="6.6">ext</text>
         <text x="83" y="6.6">Core</text>
         <text x="150" y="6.6">Apps</text>
         <text x="217" y="6.6">Platformer</text>
      </g>
      <g fill="#3f425b">
         <text x="21.359314" y="16.518599">__pycache__</text>
         <text x="21.446201" y="26.122705" transform="scale(0.98377558,1.016492)">Apps</text>
         <text x="21.446201" y="36.441158" transform="scale(0.98377558,1.016492)">Core</text>
         <text x="21.446201" y="46.348202" transform="scale(0.98377558,1.016492)">Platformer</text>
         <text x="88.547211" y="16.518599">__pycache__</text>
         <text x="89.742157" y="26.058466" transform="scale(0.98377558,1.016492)">__init__.py</text>
         <text x="89.742157" y="36.445675" transform="scale(0.98377558,1.016492)">documentation...</text>
         <text x="89.742157" y="45.864956" transform="scale(0.98377558,1.016492)">operations.py</text>
         <text x="89.742157" y="55.860775" transform="scale(0.98377558,1.016492)">scan_unlocks.py</text>
         <text x="89.742157" y="65.763329" transform="scale(0.98377558,1.016492)">variables.py</text>
         <text x="155.73511" y="16.518599">__pycache__</text>
         <text x="158.03812" y="26.058466" transform="scale(0.98377558,1.016492)">__init__.py</text>
         <text x="158.03812" y="36.445644" transform="scale(0.98377558,1.016492)">documentation...</text>
         <text x="158.03812" y="45.959621" transform="scale(0.98377558,1.016492)">file_explorer.py</text>
         <text x="158.03812" y="55.860775" transform="scale(0.98377558,1.016492)">snake.py</text>
         <text x="158.03812" y="65.763329" transform="scale(0.98377558,1.016492)">sphere.py</text>
         <text x="158.03812" y="75.665886" transform="scale(0.98377558,1.016492)">web_search.py</text>
         <text x="226.33414" y="65.763298" transform="scale(0.98377558,1.016492)">plat_variables.py</text>
         <text x="226.33414" y="55.860744" transform="scale(0.98377558,1.016492)">math_utils.py</text>
         <text x="226.33414" y="45.959621" transform="scale(0.98377558,1.016492)">map_utils.py</text>
         <text x="226.33414" y="75.665855" transform="scale(0.98377558,1.016492)">platformer.py</text>
         <text x="222.923" y="16.518599">__pycache__</text>
         <text x="226.33414" y="85.568382" transform="scale(0.98377558,1.016492)" >random_backgro...</text>
         <text x="222.923" y="36.554062">images.txt</text>
         <text x="222.923" y="26.980848">data.txt</text>
      </g>
   </g>
   <use href="#folderUp" transform="translate(11.4,6.5)"/>
   <use href="#folderUp" transform="translate(78.4,6.5)"/>
   <use href="#folderUp" transform="translate(146,6.5)"/>
   <use href="#folderUp" transform="translate(213.2,6.5)"/>
   <use href="#folder" transform="translate(16.736535,16.619384)"/>
   <use href="#folder" transform="translate(16.736535,26.685234)"/>
   <use href="#folder" transform="translate(16.736535,36.751094)"/>
   <use href="#folder" transform="translate(16.736535,46.816954)"/>
   <use href="#folder" transform="translate(83.684105,16.619384)" />
   <use href="#folder" transform="translate(151.13994,16.619384)"/>
   <use href="#folder" transform="translate(218.28769,16.619384)"/>
   <use href="#py" transform="translate(81.507585,28.124944)" />
   <use href="#py" transform="translate(81.507585,48.258094)" />
   <use href="#py" transform="translate(81.507585,58.322534)" />
   <use href="#py" transform="translate(81.507585,68.388394)" />
   <use href="#py" transform="translate(148.69547,28.124954)"/>
   <use href="#py" transform="translate(148.69547,48.258094)"/>
   <use href="#py" transform="translate(148.69547,58.322524)"/>
   <use href="#py" transform="translate(148.69547,68.388384)"/>
   <use href="#py" transform="translate(148.69547,78.454264)"/>
   <use href="#py" transform="translate(215.88336,48.258094)"/>
   <use href="#py" transform="translate(215.88336,58.322524)"/>
   <use href="#py" transform="translate(215.88336,68.388384)"/>
   <use href="#py" transform="translate(215.88336,78.454254)"/>
   <use href="#md" transform="translate(79.091925,33.331754)"/>
   <use href="#md" transform="translate(146.27981,33.331754)"/>
   <use href="#txt" transform="translate(213.85255,23.098854)"/>
   <use href="#txt" transform="translate(213.85255,33.164724)"/>
   <use href="#png" transform="translate(214.60391,87.785154)"/>
</svg>
