<?xml version="1.0" encoding="UTF-8" standalone="no"?>
<!-- Created with Inkscape (http://www.inkscape.org/) -->

<svg
   xmlns:dc="http://purl.org/dc/elements/1.1/"
   xmlns:cc="http://creativecommons.org/ns#"
   xmlns:rdf="http://www.w3.org/1999/02/22-rdf-syntax-ns#"
   xmlns:svg="http://www.w3.org/2000/svg"
   xmlns="http://www.w3.org/2000/svg"
   xmlns:sodipodi="http://sodipodi.sourceforge.net/DTD/sodipodi-0.dtd"
   xmlns:inkscape="http://www.inkscape.org/namespaces/inkscape"
   width="210mm"
   height="297mm"
   viewBox="0 0 210 297"
   version="1.1"
   id="svg8"
   inkscape:version="0.92.4 (5da689c313, 2019-01-14)"
   sodipodi:docname="structure2.svg">
  <defs
     id="defs2" />
  <sodipodi:namedview
     id="base"
     pagecolor="#ffffff"
     bordercolor="#666666"
     borderopacity="1.0"
     inkscape:pageopacity="0.0"
     inkscape:pageshadow="2"
     inkscape:zoom="0.98994949"
     inkscape:cx="620.4793"
     inkscape:cy="955.8484"
     inkscape:document-units="mm"
     inkscape:current-layer="layer1"
     showgrid="false"
     inkscape:snap-global="true"
     inkscape:window-width="1920"
     inkscape:window-height="986"
     inkscape:window-x="-11"
     inkscape:window-y="-11"
     inkscape:window-maximized="1" />
  <metadata
     id="metadata5">
    <rdf:RDF>
      <cc:Work
         rdf:about="">
        <dc:format>image/svg+xml</dc:format>
        <dc:type
           rdf:resource="http://purl.org/dc/dcmitype/StillImage" />
        <dc:title></dc:title>
      </cc:Work>
    </rdf:RDF>
  </metadata>
  <g
     inkscape:label="Layer 1"
     inkscape:groupmode="layer"
     id="layer1">
    <rect
       style="fill:#ffffff;fill-opacity:1;stroke:none;stroke-width:0.26458332;stroke-linejoin:miter;stroke-miterlimit:4;stroke-dasharray:none;stroke-dashoffset:0;stroke-opacity:1"
       id="rect867"
       width="67.187881"
       height="10.065856"
       x="0"
       y="40.263718" />
    <rect
       style="fill:#1389ff;fill-opacity:1;stroke:none;stroke-width:0.26458332;stroke-linejoin:miter;stroke-miterlimit:4;stroke-dasharray:none;stroke-dashoffset:0;stroke-opacity:1"
       id="rect859"
       width="67.187881"
       height="10.065856"
       x="0"
       y="0.00028855132" />
    <rect
       y="10.066146"
       x="0"
       height="10.065856"
       width="67.187881"
       id="rect861"
       style="fill:#ffffff;fill-opacity:1;stroke:none;stroke-width:0.26458332;stroke-linejoin:miter;stroke-miterlimit:4;stroke-dasharray:none;stroke-dashoffset:0;stroke-opacity:1" />
    <rect
       style="fill:#ffffff;fill-opacity:1;stroke:none;stroke-width:0.26458332;stroke-linejoin:miter;stroke-miterlimit:4;stroke-dasharray:none;stroke-dashoffset:0;stroke-opacity:1"
       id="rect863"
       width="67.187881"
       height="10.065856"
       x="0"
       y="20.132002" />
    <rect
       y="30.197859"
       x="0"
       height="10.065856"
       width="67.187881"
       id="rect865"
       style="fill:#ffffff;fill-opacity:1;stroke:none;stroke-width:0.26458332;stroke-linejoin:miter;stroke-miterlimit:4;stroke-dasharray:none;stroke-dashoffset:0;stroke-opacity:1" />
    <path
       style="fill:none;stroke:#ffffff;stroke-width:0.40000001;stroke-linecap:round;stroke-linejoin:round;stroke-miterlimit:4;stroke-dasharray:none;stroke-opacity:1"
       d="M 1.18121,4.24308 2.62223,5.68412 4.01603,4.29033"
       id="path869"
       inkscape:connector-curvature="0" />
    <path
       style="fill:none;stroke:#fefefe;stroke-width:0.40000001;stroke-linecap:round;stroke-linejoin:round;stroke-miterlimit:4;stroke-dasharray:none;stroke-opacity:1"
       d="M 7.09401,3.05033 V 6.9675 h 4.33477 V 3.72685 H 9.05677 L 8.6718,3.06007 Z"
       id="path871"
       inkscape:connector-curvature="0"
       sodipodi:nodetypes="ccccccc" />
    <text
       xml:space="preserve"
       style="font-style:normal;font-weight:normal;font-size:4.22728348px;line-height:1.25;font-family:sans-serif;letter-spacing:0px;word-spacing:0px;fill:#ffffff;fill-opacity:1;stroke:none;stroke-width:0.1056821"
       x="15.774214"
       y="6.5554123"
       id="text875"><tspan
         sodipodi:role="line"
         id="tspan873"
         x="15.774214"
         y="6.5554123"
         style="fill:#ffffff;fill-opacity:1;stroke-width:0.1056821">ext</tspan></text>
    <path
       inkscape:connector-curvature="0"
       id="path883"
       d="m 7.1900754,16.516474 1.44104,-1.44102 -1.39379,-1.3938"
       style="fill:none;stroke:#3f425b;stroke-width:0.40000001;stroke-linecap:round;stroke-linejoin:round;stroke-miterlimit:4;stroke-dasharray:none;stroke-opacity:1" />
    <text
       id="text889"
       y="16.518599"
       x="21.359314"
       style="font-style:normal;font-variant:normal;font-weight:normal;font-stretch:normal;font-size:4.6927762px;line-height:1.25;font-family:'Yu Gothic';-inkscape-font-specification:'Yu Gothic';letter-spacing:0px;word-spacing:0px;fill:#3f425b;fill-opacity:1;stroke:none;stroke-width:0.11731942;stroke-opacity:1"
       xml:space="preserve"><tspan
         style="font-style:normal;font-variant:normal;font-weight:normal;font-stretch:normal;font-family:'Yu Gothic';-inkscape-font-specification:'Yu Gothic';fill:#3f425b;fill-opacity:1;stroke:none;stroke-width:0.11731942;stroke-opacity:1"
         y="16.518599"
         x="21.359314"
         id="tspan887"
         sodipodi:role="line">__pycache__</tspan></text>
    <path
       style="fill:none;stroke:#3f425b;stroke-width:0.40000001;stroke-linecap:round;stroke-linejoin:round;stroke-miterlimit:4;stroke-dasharray:none;stroke-opacity:1"
       d="m 7.1900754,26.582334 1.44104,-1.44102 -1.39379,-1.3938"
       id="path911"
       inkscape:connector-curvature="0" />
    <text
       xml:space="preserve"
       style="font-style:normal;font-variant:normal;font-weight:normal;font-stretch:normal;font-size:4.61663866px;line-height:1.25;font-family:'Yu Gothic';-inkscape-font-specification:'Yu Gothic';letter-spacing:0px;word-spacing:0px;fill:#3f425b;fill-opacity:1;stroke:none;stroke-width:0.11541598;stroke-opacity:1"
       x="21.446201"
       y="26.122705"
       id="text917"
       transform="scale(0.98377558,1.016492)"><tspan
         sodipodi:role="line"
         id="tspan915"
         x="21.446201"
         y="26.122705"
         style="font-style:normal;font-variant:normal;font-weight:normal;font-stretch:normal;font-family:'Yu Gothic';-inkscape-font-specification:'Yu Gothic';fill:#3f425b;fill-opacity:1;stroke:none;stroke-width:0.11541598;stroke-opacity:1">Apps</tspan></text>
    <path
       inkscape:connector-curvature="0"
       id="path919"
       d="m 7.1900754,36.648184 1.44104,-1.44102 -1.39379,-1.3938"
       style="fill:none;stroke:#3f425b;stroke-width:0.40000001;stroke-linecap:round;stroke-linejoin:round;stroke-miterlimit:4;stroke-dasharray:none;stroke-opacity:1" />
    <text
       transform="scale(0.98377558,1.016492)"
       id="text925"
       y="36.441158"
       x="21.446201"
       style="font-style:normal;font-variant:normal;font-weight:normal;font-stretch:normal;font-size:4.61663866px;line-height:1.25;font-family:'Yu Gothic';-inkscape-font-specification:'Yu Gothic';letter-spacing:0px;word-spacing:0px;fill:#3f425b;fill-opacity:1;stroke:none;stroke-width:0.11541598;stroke-opacity:1"
       xml:space="preserve"><tspan
         style="font-style:normal;font-variant:normal;font-weight:normal;font-stretch:normal;font-family:'Yu Gothic';-inkscape-font-specification:'Yu Gothic';fill:#3f425b;fill-opacity:1;stroke:none;stroke-width:0.11541598;stroke-opacity:1"
         y="36.441158"
         x="21.446201"
         id="tspan923"
         sodipodi:role="line">Core</tspan></text>
    <path
       style="fill:none;stroke:#3f425b;stroke-width:0.40000001;stroke-linecap:round;stroke-linejoin:round;stroke-miterlimit:4;stroke-dasharray:none;stroke-opacity:1"
       d="m 7.1900754,46.714044 1.44104,-1.44102 -1.39379,-1.3938"
       id="path935"
       inkscape:connector-curvature="0" />
    <text
       xml:space="preserve"
       style="font-style:normal;font-variant:normal;font-weight:normal;font-stretch:normal;font-size:4.61663866px;line-height:1.25;font-family:'Yu Gothic';-inkscape-font-specification:'Yu Gothic';letter-spacing:0px;word-spacing:0px;fill:#3f425b;fill-opacity:1;stroke:none;stroke-width:0.11541598;stroke-opacity:1"
       x="21.446201"
       y="46.348202"
       id="text941"
       transform="scale(0.98377558,1.016492)"><tspan
         sodipodi:role="line"
         id="tspan939"
         x="21.446201"
         y="46.348202"
         style="font-style:normal;font-variant:normal;font-weight:normal;font-stretch:normal;font-family:'Yu Gothic';-inkscape-font-specification:'Yu Gothic';fill:#3f425b;fill-opacity:1;stroke:none;stroke-width:0.11541598;stroke-opacity:1">Platformer</tspan></text>
    <text
       transform="scale(0.98377558,1.016492)"
       id="text949"
       y="261.37537"
       x="385.38889"
       style="font-style:normal;font-variant:normal;font-weight:normal;font-stretch:normal;font-size:4.61663866px;line-height:1.25;font-family:'Yu Gothic';-inkscape-font-specification:'Yu Gothic';letter-spacing:0px;word-spacing:0px;fill:#3f425b;fill-opacity:1;stroke:none;stroke-width:0.11541598;stroke-opacity:1"
       xml:space="preserve"><tspan
         style="font-style:normal;font-variant:normal;font-weight:normal;font-stretch:normal;font-family:'Yu Gothic';-inkscape-font-specification:'Yu Gothic';fill:#3f425b;fill-opacity:1;stroke:none;stroke-width:0.11541598;stroke-opacity:1"
         y="266.01456"
         x="385.38889"
         id="tspan947"
         sodipodi:role="line" /></text>
    <rect
       y="0.00028855132"
       x="67.187897"
       height="10.065856"
       width="67.187881"
       id="rect1005"
       style="opacity:1;fill:#1389ff;fill-opacity:1;stroke:none;stroke-width:0.26458332;stroke-linejoin:miter;stroke-miterlimit:4;stroke-dasharray:none;stroke-dashoffset:0;stroke-opacity:1" />
    <rect
       style="opacity:1;fill:#ffffff;fill-opacity:1;stroke:none;stroke-width:0.26458332;stroke-linejoin:miter;stroke-miterlimit:4;stroke-dasharray:none;stroke-dashoffset:0;stroke-opacity:1"
       id="rect1007"
       width="67.187881"
       height="10.065856"
       x="67.187897"
       y="10.066146" />
    <rect
       y="20.132002"
       x="67.187897"
       height="10.065856"
       width="67.187881"
       id="rect1009"
       style="opacity:1;fill:#ffffff;fill-opacity:1;stroke:none;stroke-width:0.26458332;stroke-linejoin:miter;stroke-miterlimit:4;stroke-dasharray:none;stroke-dashoffset:0;stroke-opacity:1" />
    <rect
       style="opacity:1;fill:#ffffff;fill-opacity:1;stroke:none;stroke-width:0.26458332;stroke-linejoin:miter;stroke-miterlimit:4;stroke-dasharray:none;stroke-dashoffset:0;stroke-opacity:1"
       id="rect1011"
       width="67.187881"
       height="10.065856"
       x="67.187897"
       y="30.197859" />
    <rect
       y="40.265121"
       x="67.187897"
       height="10.065856"
       width="67.187881"
       id="rect1013"
       style="opacity:1;fill:#ffffff;fill-opacity:1;stroke:none;stroke-width:0.26458332;stroke-linejoin:miter;stroke-miterlimit:4;stroke-dasharray:none;stroke-dashoffset:0;stroke-opacity:1" />
    <path
       inkscape:connector-curvature="0"
       id="path1015"
       d="m 68.36907,4.26738 1.44102,1.44104 1.3938,-1.39379"
       style="fill:none;stroke:#ffffff;stroke-width:0.40000001;stroke-linecap:round;stroke-linejoin:round;stroke-miterlimit:4;stroke-dasharray:none;stroke-opacity:1" />
    <path
       sodipodi:nodetypes="ccccccc"
       inkscape:connector-curvature="0"
       id="path1017"
       d="M 74.28187,3.07463 V 6.9918 h 4.33477 V 3.75115 H 76.24463 L 75.85966,3.08437 Z"
       style="fill:none;stroke:#fefefe;stroke-width:0.40000001;stroke-linecap:round;stroke-linejoin:round;stroke-miterlimit:4;stroke-dasharray:none;stroke-opacity:1" />
    <text
       id="text1021"
       y="6.5797124"
       x="82.962074"
       style="font-style:normal;font-weight:normal;font-size:4.22728348px;line-height:1.25;font-family:sans-serif;letter-spacing:0px;word-spacing:0px;fill:#ffffff;fill-opacity:1;stroke:none;stroke-width:0.1056821"
       xml:space="preserve"><tspan
         style="fill:#ffffff;fill-opacity:1;stroke-width:0.1056821"
         y="6.5797124"
         x="82.962074"
         id="tspan1019"
         sodipodi:role="line">Core</tspan></text>
    <path
       style="fill:none;stroke:#3f425b;stroke-width:0.40000001;stroke-linecap:round;stroke-linejoin:round;stroke-miterlimit:4;stroke-dasharray:none;stroke-opacity:1"
       d="m 74.377945,16.516474 1.44104,-1.44102 -1.39379,-1.3938"
       id="path1025"
       inkscape:connector-curvature="0" />
    <path
       style="fill:none;stroke:#3f425b;stroke-width:0.40000001;stroke-linecap:round;stroke-linejoin:round;stroke-miterlimit:4;stroke-dasharray:none;stroke-opacity:1"
       d="m 83.684105,16.619384 c 0,0.1152 -0.0458,0.22568 -0.12723,0.30715 -0.0815,0.0815 -0.19195,0.12723 -0.30714,0.12723 h -3.47502 c -0.1152,0 -0.22569,-0.0458 -0.30715,-0.12723 -0.0815,-0.0815 -0.12723,-0.19195 -0.12723,-0.30715 v -3.04063 c 0,-0.1152 0.0458,-0.22569 0.12723,-0.30716 0.0815,-0.0815 0.19195,-0.12722 0.30715,-0.12722 h 1.08594 l 0.43437,0.65156 h 1.95471 c 0.11519,0 0.22568,0.0458 0.30714,0.12723 0.0815,0.0815 0.12723,0.19194 0.12723,0.30715 z"
       id="path1027"
       inkscape:connector-curvature="0"
       sodipodi:nodetypes="ccccccc" />
    <text
       xml:space="preserve"
       style="font-style:normal;font-variant:normal;font-weight:normal;font-stretch:normal;font-size:4.6927762px;line-height:1.25;font-family:'Yu Gothic';-inkscape-font-specification:'Yu Gothic';letter-spacing:0px;word-spacing:0px;fill:#3f425b;fill-opacity:1;stroke:none;stroke-width:0.11731942;stroke-opacity:1"
       x="88.547211"
       y="16.518599"
       id="text1031"><tspan
         sodipodi:role="line"
         id="tspan1029"
         x="88.547211"
         y="16.518599"
         style="font-style:normal;font-variant:normal;font-weight:normal;font-stretch:normal;font-family:'Yu Gothic';-inkscape-font-specification:'Yu Gothic';fill:#3f425b;fill-opacity:1;stroke:none;stroke-width:0.11731942;stroke-opacity:1">__pycache__</tspan></text>
    <text
       transform="scale(0.98377558,1.016492)"
       id="text1039"
       y="26.058466"
       x="89.742157"
       style="font-style:normal;font-variant:normal;font-weight:normal;font-stretch:normal;font-size:4.61663866px;line-height:1.25;font-family:'Yu Gothic';-inkscape-font-specification:'Yu Gothic';letter-spacing:0px;word-spacing:0px;fill:#3f425b;fill-opacity:1;stroke:none;stroke-width:0.11541598;stroke-opacity:1"
       xml:space="preserve"><tspan
         style="font-style:normal;font-variant:normal;font-weight:normal;font-stretch:normal;font-family:'Yu Gothic';-inkscape-font-specification:'Yu Gothic';fill:#3f425b;fill-opacity:1;stroke:none;stroke-width:0.11541598;stroke-opacity:1"
         y="26.058466"
         x="89.742157"
         id="tspan1037"
         sodipodi:role="line">__init__.py</tspan></text>
    <text
       xml:space="preserve"
       style="font-style:normal;font-variant:normal;font-weight:normal;font-stretch:normal;font-size:4.61663866px;line-height:1.25;font-family:'Yu Gothic';-inkscape-font-specification:'Yu Gothic';letter-spacing:0px;word-spacing:0px;fill:#3f425b;fill-opacity:1;stroke:none;stroke-width:0.11541598;stroke-opacity:1"
       x="89.742157"
       y="36.445675"
       id="text1047"
       transform="scale(0.98377558,1.016492)"><tspan
         sodipodi:role="line"
         id="tspan1045"
         x="89.742157"
         y="36.445675"
         style="font-style:normal;font-variant:normal;font-weight:normal;font-stretch:normal;font-family:'Yu Gothic';-inkscape-font-specification:'Yu Gothic';fill:#3f425b;fill-opacity:1;stroke:none;stroke-width:0.11541598;stroke-opacity:1">documentation...</tspan></text>
    <text
       transform="scale(0.98377558,1.016492)"
       id="text1055"
       y="45.864956"
       x="89.742157"
       style="font-style:normal;font-variant:normal;font-weight:normal;font-stretch:normal;font-size:4.61663866px;line-height:1.25;font-family:'Yu Gothic';-inkscape-font-specification:'Yu Gothic';letter-spacing:0px;word-spacing:0px;fill:#3f425b;fill-opacity:1;stroke:none;stroke-width:0.11541598;stroke-opacity:1"
       xml:space="preserve"><tspan
         style="font-style:normal;font-variant:normal;font-weight:normal;font-stretch:normal;font-family:'Yu Gothic';-inkscape-font-specification:'Yu Gothic';fill:#3f425b;fill-opacity:1;stroke:none;stroke-width:0.11541598;stroke-opacity:1"
         y="45.864956"
         x="89.742157"
         id="tspan1053"
         sodipodi:role="line">operations.py</tspan></text>
    <rect
       style="opacity:1;fill:#ffffff;fill-opacity:1;stroke:none;stroke-width:0.26458332;stroke-linejoin:miter;stroke-miterlimit:4;stroke-dasharray:none;stroke-dashoffset:0;stroke-opacity:1"
       id="rect1098"
       width="67.187881"
       height="10.065856"
       x="67.187897"
       y="50.329575" />
    <text
       xml:space="preserve"
       style="font-style:normal;font-variant:normal;font-weight:normal;font-stretch:normal;font-size:4.61663866px;line-height:1.25;font-family:'Yu Gothic';-inkscape-font-specification:'Yu Gothic';letter-spacing:0px;word-spacing:0px;fill:#3f425b;fill-opacity:1;stroke:none;stroke-width:0.11541598;stroke-opacity:1"
       x="89.742157"
       y="55.860775"
       id="text1106"
       transform="scale(0.98377558,1.016492)"><tspan
         sodipodi:role="line"
         id="tspan1104"
         x="89.742157"
         y="55.860775"
         style="font-style:normal;font-variant:normal;font-weight:normal;font-stretch:normal;font-family:'Yu Gothic';-inkscape-font-specification:'Yu Gothic';fill:#3f425b;fill-opacity:1;stroke:none;stroke-width:0.11541598;stroke-opacity:1">scan_unlocks.py</tspan></text>
    <rect
       y="60.395432"
       x="67.187897"
       height="10.065856"
       width="67.187881"
       id="rect1108"
       style="opacity:1;fill:#ffffff;fill-opacity:1;stroke:none;stroke-width:0.26458332;stroke-linejoin:miter;stroke-miterlimit:4;stroke-dasharray:none;stroke-dashoffset:0;stroke-opacity:1" />
    <text
       transform="scale(0.98377558,1.016492)"
       id="text1116"
       y="65.763329"
       x="89.742157"
       style="font-style:normal;font-variant:normal;font-weight:normal;font-stretch:normal;font-size:4.61663866px;line-height:1.25;font-family:'Yu Gothic';-inkscape-font-specification:'Yu Gothic';letter-spacing:0px;word-spacing:0px;fill:#3f425b;fill-opacity:1;stroke:none;stroke-width:0.11541598;stroke-opacity:1"
       xml:space="preserve"><tspan
         style="font-style:normal;font-variant:normal;font-weight:normal;font-stretch:normal;font-family:'Yu Gothic';-inkscape-font-specification:'Yu Gothic';fill:#3f425b;fill-opacity:1;stroke:none;stroke-width:0.11541598;stroke-opacity:1"
         y="65.763329"
         x="89.742157"
         id="tspan1114"
         sodipodi:role="line">variables.py</tspan></text>
    <path
       inkscape:connector-curvature="0"
       id="path1090"
       d="m 81.507585,68.388394 c -0.1269,-0.0141 -0.21678,-0.0308 -0.37393,-0.0699 -0.43913,-0.10863 -0.71146,-0.31081 -0.79656,-0.59137 -0.0149,-0.0492 -0.0183,-0.16569 -0.022,-0.755 -0.002,-0.44097 0,-0.73708 0.007,-0.80643 0.0205,-0.18805 0.0865,-0.32942 0.21257,-0.45514 0.0831,-0.0829 0.16409,-0.13404 0.27741,-0.17544 l 0.0831,-0.0304 0.84982,-0.005 0.84982,-0.005 0.0793,-0.0264 c 0.25322,-0.0846 0.45186,-0.25504 0.56044,-0.48124 0.0802,-0.16716 0.0827,-0.18384 0.09,-0.61905 l 0.006,-0.39093 0.27761,-0.003 c 0.15267,-0.002 0.3119,0.002 0.35384,0.008 0.31204,0.0479 0.50045,0.27763 0.61478,0.74952 0.0745,0.30754 0.10134,0.53823 0.0936,0.80257 -0.007,0.23937 -0.0317,0.37595 -0.11137,0.61806 -0.12958,0.39414 -0.26768,0.58544 -0.48049,0.66558 l -0.068,0.0256 -1.1331,0.005 -1.13309,0.005 -0.003,0.0878 -0.003,0.0878 h 0.69595 c 0.60497,0 0.6978,0.002 0.71008,0.017 0.011,0.013 0.0128,0.0892 0.008,0.32577 -0.004,0.27291 -0.008,0.31731 -0.0293,0.38241 -0.10021,0.31086 -0.43308,0.51103 -1.0188,0.61268 -0.15241,0.0264 -0.45633,0.0375 -0.59777,0.0217 z m 1.11475,-0.47811 c 0.0516,-0.0157 0.12489,-0.0836 0.15019,-0.13924 0.0407,-0.0893 0.0179,-0.22464 -0.0504,-0.29895 -0.0352,-0.0384 -0.13034,-0.0804 -0.1821,-0.0805 -0.10545,-2.3e-4 -0.2132,0.069 -0.25065,0.16116 -0.0483,0.1191 -0.004,0.26611 0.0998,0.33024 0.0817,0.0504 0.13633,0.0568 0.23325,0.0274 z m -3.15783,-1.08558 c -0.28142,-0.0741 -0.46977,-0.31034 -0.56802,-0.71265 -0.0736,-0.30109 -0.0857,-0.40131 -0.0854,-0.70354 2.2e-4,-0.23736 0.004,-0.29814 0.0257,-0.41925 0.0463,-0.25767 0.0881,-0.40507 0.15117,-0.53255 0.0517,-0.10467 0.0718,-0.13197 0.16751,-0.22703 0.12245,-0.12176 0.22836,-0.18364 0.39195,-0.22899 0.0901,-0.025 0.0965,-0.0253 1.13268,-0.0285 0.80215,-0.002 1.04405,-0.006 1.05077,-0.0172 0.0139,-0.0219 0.011,-0.13815 -0.004,-0.15313 -0.009,-0.009 -0.18301,-0.0136 -0.70797,-0.0136 h -0.69436 l -0.007,-0.03 c -0.0139,-0.0556 0.004,-0.67241 0.0227,-0.75379 0.0506,-0.2283 0.19526,-0.3612 0.48292,-0.44389 0.38736,-0.11132 1.11544,-0.13278 1.60765,-0.0474 0.35519,0.0616 0.61908,0.27768 0.70091,0.57386 0.0182,0.0657 0.0199,0.14191 0.0199,0.84276 0,0.86044 0.002,0.83081 -0.0811,1.00278 -0.0575,0.1183 -0.1915,0.25227 -0.3097,0.30967 -0.15912,0.0772 -0.13776,0.0757 -0.97432,0.0757 -0.45483,0 -0.7916,0.004 -0.84834,0.0118 -0.36229,0.0453 -0.64325,0.28137 -0.76179,0.63974 -0.0247,0.0749 -0.0266,0.10082 -0.0325,0.4759 l -0.006,0.39659 -0.29461,0.002 c -0.25919,0.002 -0.30456,-3.3e-4 -0.37742,-0.0195 z m 1.61265,-3.43907 c 0.14781,-0.092 0.16469,-0.30707 0.0332,-0.4228 -0.0837,-0.0738 -0.18467,-0.0891 -0.28265,-0.0428 -0.0676,0.0319 -0.0983,0.0631 -0.12936,0.1317 -0.0447,0.0985 -0.0256,0.21584 0.0478,0.29315 0.0568,0.0598 0.11411,0.0822 0.2019,0.078 0.0597,-0.002 0.086,-0.009 0.12911,-0.0371 z"
       style="opacity:1;fill:#028297;stroke-width:0.01133101" />
    <path
       style="opacity:1;fill:#028297;stroke-width:0.01133101"
       d="m 81.507585,58.322534 c -0.1269,-0.0141 -0.21678,-0.0308 -0.37393,-0.0699 -0.43913,-0.10863 -0.71146,-0.31081 -0.79656,-0.59137 -0.0149,-0.0492 -0.0183,-0.16569 -0.022,-0.755 -0.002,-0.44097 0,-0.73708 0.007,-0.80643 0.0205,-0.18805 0.0865,-0.32942 0.21257,-0.45514 0.0831,-0.0829 0.16409,-0.13404 0.27741,-0.17544 l 0.0831,-0.0304 0.84982,-0.005 0.84982,-0.005 0.0793,-0.0264 c 0.25322,-0.0846 0.45186,-0.25504 0.56044,-0.48124 0.0802,-0.16716 0.0827,-0.18384 0.09,-0.61905 l 0.006,-0.39093 0.27761,-0.003 c 0.15267,-0.002 0.3119,0.002 0.35384,0.008 0.31204,0.0479 0.50045,0.27763 0.61478,0.74952 0.0745,0.30754 0.10134,0.53823 0.0936,0.80257 -0.007,0.23937 -0.0317,0.37595 -0.11137,0.61806 -0.12958,0.39414 -0.26768,0.58544 -0.48049,0.66558 l -0.068,0.0256 -1.1331,0.005 -1.13309,0.005 -0.003,0.0878 -0.003,0.0878 h 0.69595 c 0.60497,0 0.6978,0.002 0.71008,0.017 0.011,0.013 0.0128,0.0892 0.008,0.32577 -0.004,0.27291 -0.008,0.31731 -0.0293,0.38241 -0.10021,0.31086 -0.43308,0.51103 -1.0188,0.61268 -0.15241,0.0264 -0.45633,0.0375 -0.59777,0.0217 z m 1.11475,-0.47811 c 0.0516,-0.0157 0.12489,-0.0836 0.15019,-0.13924 0.0407,-0.0893 0.0179,-0.22464 -0.0504,-0.29895 -0.0352,-0.0384 -0.13034,-0.0804 -0.1821,-0.0805 -0.10545,-2.3e-4 -0.2132,0.069 -0.25065,0.16116 -0.0483,0.1191 -0.004,0.26611 0.0998,0.33024 0.0817,0.0504 0.13633,0.0568 0.23325,0.0274 z m -3.15783,-1.08558 c -0.28142,-0.0741 -0.46977,-0.31034 -0.56802,-0.71265 -0.0736,-0.30109 -0.0857,-0.40131 -0.0854,-0.70354 2.2e-4,-0.23736 0.004,-0.29814 0.0257,-0.41925 0.0463,-0.25767 0.0881,-0.40507 0.15117,-0.53255 0.0517,-0.10467 0.0718,-0.13197 0.16751,-0.22703 0.12245,-0.12176 0.22836,-0.18364 0.39195,-0.22899 0.0901,-0.025 0.0965,-0.0253 1.13268,-0.0285 0.80215,-0.002 1.04405,-0.006 1.05077,-0.0172 0.0139,-0.0219 0.011,-0.13815 -0.004,-0.15313 -0.009,-0.009 -0.18301,-0.0136 -0.70797,-0.0136 h -0.69436 l -0.007,-0.03 c -0.0139,-0.0556 0.004,-0.67241 0.0227,-0.75379 0.0506,-0.2283 0.19526,-0.3612 0.48292,-0.44389 0.38736,-0.11132 1.11544,-0.13278 1.60765,-0.0474 0.35519,0.0616 0.61908,0.27768 0.70091,0.57386 0.0182,0.0657 0.0199,0.14191 0.0199,0.84276 0,0.86044 0.002,0.83081 -0.0811,1.00278 -0.0575,0.1183 -0.1915,0.25227 -0.3097,0.30967 -0.15912,0.0772 -0.13776,0.0757 -0.97432,0.0757 -0.45483,0 -0.7916,0.004 -0.84834,0.0118 -0.36229,0.0453 -0.64325,0.28137 -0.76179,0.63974 -0.0247,0.0749 -0.0266,0.10082 -0.0325,0.4759 l -0.006,0.39659 -0.29461,0.002 c -0.25919,0.002 -0.30456,-3.3e-4 -0.37742,-0.0195 z m 1.61265,-3.43907 c 0.14781,-0.092 0.16469,-0.30707 0.0332,-0.4228 -0.0837,-0.0738 -0.18467,-0.0891 -0.28265,-0.0428 -0.0676,0.0319 -0.0983,0.0631 -0.12936,0.1317 -0.0447,0.0985 -0.0256,0.21584 0.0478,0.29315 0.0568,0.0598 0.11411,0.0822 0.2019,0.078 0.0597,-0.002 0.086,-0.009 0.12911,-0.0371 z"
       id="path1118"
       inkscape:connector-curvature="0" />
    <path
       inkscape:connector-curvature="0"
       id="path1120"
       d="m 81.507585,48.258094 c -0.1269,-0.0141 -0.21678,-0.0308 -0.37393,-0.0699 -0.43913,-0.10863 -0.71146,-0.31081 -0.79656,-0.59137 -0.0149,-0.0492 -0.0183,-0.16569 -0.022,-0.755 -0.002,-0.44097 0,-0.73708 0.007,-0.80643 0.0205,-0.18805 0.0865,-0.32942 0.21257,-0.45514 0.0831,-0.0829 0.16409,-0.13404 0.27741,-0.17544 l 0.0831,-0.0304 0.84982,-0.005 0.84982,-0.005 0.0793,-0.0264 c 0.25322,-0.0846 0.45186,-0.25504 0.56044,-0.48124 0.0802,-0.16716 0.0827,-0.18384 0.09,-0.61905 l 0.006,-0.39093 0.27761,-0.003 c 0.15267,-0.002 0.3119,0.002 0.35384,0.008 0.31204,0.0479 0.50045,0.27763 0.61478,0.74952 0.0745,0.30754 0.10134,0.53823 0.0936,0.80257 -0.007,0.23937 -0.0317,0.37595 -0.11137,0.61806 -0.12958,0.39414 -0.26768,0.58544 -0.48049,0.66558 l -0.068,0.0256 -1.1331,0.005 -1.13309,0.005 -0.003,0.0878 -0.003,0.0878 h 0.69595 c 0.60497,0 0.6978,0.002 0.71008,0.017 0.011,0.013 0.0128,0.0892 0.008,0.32577 -0.004,0.27291 -0.008,0.31731 -0.0293,0.38241 -0.10021,0.31086 -0.43308,0.51103 -1.0188,0.61268 -0.15241,0.0264 -0.45633,0.0375 -0.59777,0.0217 z m 1.11475,-0.47811 c 0.0516,-0.0157 0.12489,-0.0836 0.15019,-0.13924 0.0407,-0.0893 0.0179,-0.22464 -0.0504,-0.29895 -0.0352,-0.0384 -0.13034,-0.0804 -0.1821,-0.0805 -0.10545,-2.3e-4 -0.2132,0.069 -0.25065,0.16116 -0.0483,0.1191 -0.004,0.26611 0.0998,0.33024 0.0817,0.0504 0.13633,0.0568 0.23325,0.0274 z m -3.15783,-1.08558 c -0.28142,-0.0741 -0.46977,-0.31034 -0.56802,-0.71265 -0.0736,-0.30109 -0.0857,-0.40131 -0.0854,-0.70354 2.2e-4,-0.23736 0.004,-0.29814 0.0257,-0.41925 0.0463,-0.25767 0.0881,-0.40507 0.15117,-0.53255 0.0517,-0.10467 0.0718,-0.13197 0.16751,-0.22703 0.12245,-0.12176 0.22836,-0.18364 0.39195,-0.22899 0.0901,-0.025 0.0965,-0.0253 1.13268,-0.0285 0.80215,-0.002 1.04405,-0.006 1.05077,-0.0172 0.0139,-0.0219 0.011,-0.13815 -0.004,-0.15313 -0.009,-0.009 -0.18301,-0.0136 -0.70797,-0.0136 h -0.69436 l -0.007,-0.03 c -0.0139,-0.0556 0.004,-0.67241 0.0227,-0.75379 0.0506,-0.2283 0.19526,-0.3612 0.48292,-0.44389 0.38736,-0.11132 1.11544,-0.13278 1.60765,-0.0474 0.35519,0.0616 0.61908,0.27768 0.70091,0.57386 0.0182,0.0657 0.0199,0.14191 0.0199,0.84276 0,0.86044 0.002,0.83081 -0.0811,1.00278 -0.0575,0.1183 -0.1915,0.25227 -0.3097,0.30967 -0.15912,0.0772 -0.13776,0.0757 -0.97432,0.0757 -0.45483,0 -0.7916,0.004 -0.84834,0.0118 -0.36229,0.0453 -0.64325,0.28137 -0.76179,0.63974 -0.0247,0.0749 -0.0266,0.10082 -0.0325,0.4759 l -0.006,0.39659 -0.29461,0.002 c -0.25919,0.002 -0.30456,-3.3e-4 -0.37742,-0.0195 z m 1.61265,-3.43907 c 0.14781,-0.092 0.16469,-0.30707 0.0332,-0.4228 -0.0837,-0.0738 -0.18467,-0.0891 -0.28265,-0.0428 -0.0676,0.0319 -0.0983,0.0631 -0.12936,0.1317 -0.0447,0.0985 -0.0256,0.21584 0.0478,0.29315 0.0568,0.0598 0.11411,0.0822 0.2019,0.078 0.0597,-0.002 0.086,-0.009 0.12911,-0.0371 z"
       style="opacity:1;fill:#028297;stroke-width:0.01133101" />
    <path
       style="opacity:1;fill:#028297;stroke-width:0.01133101"
       d="m 81.507585,28.124944 c -0.1269,-0.0141 -0.21678,-0.0308 -0.37393,-0.0699 -0.43913,-0.10863 -0.71146,-0.31081 -0.79656,-0.59137 -0.0149,-0.0492 -0.0183,-0.16569 -0.022,-0.755 -0.002,-0.44097 0,-0.73708 0.007,-0.80643 0.0205,-0.18805 0.0865,-0.32942 0.21257,-0.45514 0.0831,-0.0829 0.16409,-0.13404 0.27741,-0.17544 l 0.0831,-0.0304 0.84982,-0.005 0.84982,-0.005 0.0793,-0.0264 c 0.25322,-0.0846 0.45186,-0.25504 0.56044,-0.48124 0.0802,-0.16716 0.0827,-0.18384 0.09,-0.61905 l 0.006,-0.39093 0.27761,-0.003 c 0.15267,-0.002 0.3119,0.002 0.35384,0.008 0.31204,0.0479 0.50045,0.27763 0.61478,0.74952 0.0745,0.30754 0.10134,0.53823 0.0936,0.80257 -0.007,0.23937 -0.0317,0.37595 -0.11137,0.61806 -0.12958,0.39414 -0.26768,0.58544 -0.48049,0.66558 l -0.068,0.0256 -1.1331,0.005 -1.13309,0.005 -0.003,0.0878 -0.003,0.0878 h 0.69595 c 0.60497,0 0.6978,0.002 0.71008,0.017 0.011,0.013 0.0128,0.0892 0.008,0.32577 -0.004,0.27291 -0.008,0.31731 -0.0293,0.38241 -0.10021,0.31086 -0.43308,0.51103 -1.0188,0.61268 -0.15241,0.0264 -0.45633,0.0375 -0.59777,0.0217 z m 1.11475,-0.47811 c 0.0516,-0.0157 0.12489,-0.0836 0.15019,-0.13924 0.0407,-0.0893 0.0179,-0.22464 -0.0504,-0.29895 -0.0352,-0.0384 -0.13034,-0.0804 -0.1821,-0.0805 -0.10545,-2.3e-4 -0.2132,0.069 -0.25065,0.16116 -0.0483,0.1191 -0.004,0.26611 0.0998,0.33024 0.0817,0.0504 0.13633,0.0568 0.23325,0.0274 z m -3.15783,-1.08558 c -0.28142,-0.0741 -0.46977,-0.31034 -0.56802,-0.71265 -0.0736,-0.30109 -0.0857,-0.40131 -0.0854,-0.70354 2.2e-4,-0.23736 0.004,-0.29814 0.0257,-0.41925 0.0463,-0.25767 0.0881,-0.40507 0.15117,-0.53255 0.0517,-0.10467 0.0718,-0.13197 0.16751,-0.22703 0.12245,-0.12176 0.22836,-0.18364 0.39195,-0.22899 0.0901,-0.025 0.0965,-0.0253 1.13268,-0.0285 0.80215,-0.002 1.04405,-0.006 1.05077,-0.0172 0.0139,-0.0219 0.011,-0.13815 -0.004,-0.15313 -0.009,-0.009 -0.18301,-0.0136 -0.70797,-0.0136 h -0.69436 l -0.007,-0.03 c -0.0139,-0.0556 0.004,-0.67241 0.0227,-0.75379 0.0506,-0.2283 0.19526,-0.3612 0.48292,-0.44389 0.38736,-0.11132 1.11544,-0.13278 1.60765,-0.0474 0.35519,0.0616 0.61908,0.27768 0.70091,0.57386 0.0182,0.0657 0.0199,0.14191 0.0199,0.84276 0,0.86044 0.002,0.83081 -0.0811,1.00278 -0.0575,0.1183 -0.1915,0.25227 -0.3097,0.30967 -0.15912,0.0772 -0.13776,0.0757 -0.97432,0.0757 -0.45483,0 -0.7916,0.004 -0.84834,0.0118 -0.36229,0.0453 -0.64325,0.28137 -0.76179,0.63974 -0.0247,0.0749 -0.0266,0.10082 -0.0325,0.4759 l -0.006,0.39659 -0.29461,0.002 c -0.25919,0.002 -0.30456,-3.3e-4 -0.37742,-0.0195 z m 1.61265,-3.43907 c 0.14781,-0.092 0.16469,-0.30707 0.0332,-0.4228 -0.0837,-0.0738 -0.18467,-0.0891 -0.28265,-0.0428 -0.0676,0.0319 -0.0983,0.0631 -0.12936,0.1317 -0.0447,0.0985 -0.0256,0.21584 0.0478,0.29315 0.0568,0.0598 0.11411,0.0822 0.2019,0.078 0.0597,-0.002 0.086,-0.009 0.12911,-0.0371 z"
       id="path1122"
       inkscape:connector-curvature="0" />
    <rect
       style="opacity:1;fill:#1389ff;fill-opacity:1;stroke:none;stroke-width:0.26458332;stroke-linejoin:miter;stroke-miterlimit:4;stroke-dasharray:none;stroke-dashoffset:0;stroke-opacity:1"
       id="rect1133"
       width="67.187881"
       height="10.065856"
       x="134.37576"
       y="0.00028855132" />
    <rect
       y="10.066146"
       x="134.37576"
       height="10.065856"
       width="67.187881"
       id="rect1135"
       style="opacity:1;fill:#ffffff;fill-opacity:1;stroke:none;stroke-width:0.26458332;stroke-linejoin:miter;stroke-miterlimit:4;stroke-dasharray:none;stroke-dashoffset:0;stroke-opacity:1" />
    <rect
       style="opacity:1;fill:#ffffff;fill-opacity:1;stroke:none;stroke-width:0.26458332;stroke-linejoin:miter;stroke-miterlimit:4;stroke-dasharray:none;stroke-dashoffset:0;stroke-opacity:1"
       id="rect1137"
       width="67.187881"
       height="10.065856"
       x="134.37576"
       y="20.132002" />
    <rect
       y="30.197859"
       x="134.37576"
       height="10.065856"
       width="67.187881"
       id="rect1139"
       style="opacity:1;fill:#ffffff;fill-opacity:1;stroke:none;stroke-width:0.26458332;stroke-linejoin:miter;stroke-miterlimit:4;stroke-dasharray:none;stroke-dashoffset:0;stroke-opacity:1" />
    <rect
       style="opacity:1;fill:#ffffff;fill-opacity:1;stroke:none;stroke-width:0.26458332;stroke-linejoin:miter;stroke-miterlimit:4;stroke-dasharray:none;stroke-dashoffset:0;stroke-opacity:1"
       id="rect1141"
       width="67.187881"
       height="10.065856"
       x="134.37576"
       y="40.265152" />
    <path
       style="fill:none;stroke:#ffffff;stroke-width:0.40000001;stroke-linecap:round;stroke-linejoin:round;stroke-miterlimit:4;stroke-dasharray:none;stroke-opacity:1"
       d="m 135.55695,4.14822 1.44102,1.44104 1.3938,-1.39379"
       id="path1143"
       inkscape:connector-curvature="0" />
    <path
       style="fill:none;stroke:#fefefe;stroke-width:0.40000001;stroke-linecap:round;stroke-linejoin:round;stroke-miterlimit:4;stroke-dasharray:none;stroke-opacity:1"
       d="m 141.46975,2.95547 v 3.91717 h 4.33477 V 3.63199 h -2.37201 l -0.38497,-0.66678 z"
       id="path1145"
       inkscape:connector-curvature="0"
       sodipodi:nodetypes="ccccccc" />
    <text
       xml:space="preserve"
       style="font-style:normal;font-weight:normal;font-size:4.22728348px;line-height:1.25;font-family:sans-serif;letter-spacing:0px;word-spacing:0px;fill:#ffffff;fill-opacity:1;stroke:none;stroke-width:0.1056821"
       x="150.14995"
       y="6.4605522"
       id="text1149"><tspan
         sodipodi:role="line"
         id="tspan1147"
         x="150.14995"
         y="6.4605522"
         style="fill:#ffffff;fill-opacity:1;stroke-width:0.1056821">Apps</tspan></text>
    <path
       inkscape:connector-curvature="0"
       id="path1153"
       d="m 141.56583,16.516484 1.44104,-1.44102 -1.39379,-1.3938"
       style="fill:none;stroke:#3f425b;stroke-width:0.40000001;stroke-linecap:round;stroke-linejoin:round;stroke-miterlimit:4;stroke-dasharray:none;stroke-opacity:1" />
    <text
       id="text1159"
       y="16.518599"
       x="155.73511"
       style="font-style:normal;font-variant:normal;font-weight:normal;font-stretch:normal;font-size:4.6927762px;line-height:1.25;font-family:'Yu Gothic';-inkscape-font-specification:'Yu Gothic';letter-spacing:0px;word-spacing:0px;fill:#3f425b;fill-opacity:1;stroke:none;stroke-width:0.11731942;stroke-opacity:1"
       xml:space="preserve"><tspan
         style="font-style:normal;font-variant:normal;font-weight:normal;font-stretch:normal;font-family:'Yu Gothic';-inkscape-font-specification:'Yu Gothic';fill:#3f425b;fill-opacity:1;stroke:none;stroke-width:0.11731942;stroke-opacity:1"
         y="16.518599"
         x="155.73511"
         id="tspan1157"
         sodipodi:role="line">__pycache__</tspan></text>
    <text
       xml:space="preserve"
       style="font-style:normal;font-variant:normal;font-weight:normal;font-stretch:normal;font-size:4.61663866px;line-height:1.25;font-family:'Yu Gothic';-inkscape-font-specification:'Yu Gothic';letter-spacing:0px;word-spacing:0px;fill:#3f425b;fill-opacity:1;stroke:none;stroke-width:0.11541598;stroke-opacity:1"
       x="158.03812"
       y="26.058466"
       id="text1163"
       transform="scale(0.98377558,1.016492)"><tspan
         sodipodi:role="line"
         id="tspan1161"
         x="158.03812"
         y="26.058466"
         style="font-style:normal;font-variant:normal;font-weight:normal;font-stretch:normal;font-family:'Yu Gothic';-inkscape-font-specification:'Yu Gothic';fill:#3f425b;fill-opacity:1;stroke:none;stroke-width:0.11541598;stroke-opacity:1">__init__.py</tspan></text>
    <text
       transform="scale(0.98377558,1.016492)"
       id="text1167"
       y="36.445644"
       x="158.03812"
       style="font-style:normal;font-variant:normal;font-weight:normal;font-stretch:normal;font-size:4.61663866px;line-height:1.25;font-family:'Yu Gothic';-inkscape-font-specification:'Yu Gothic';letter-spacing:0px;word-spacing:0px;fill:#3f425b;fill-opacity:1;stroke:none;stroke-width:0.11541598;stroke-opacity:1"
       xml:space="preserve"><tspan
         style="font-style:normal;font-variant:normal;font-weight:normal;font-stretch:normal;font-family:'Yu Gothic';-inkscape-font-specification:'Yu Gothic';fill:#3f425b;fill-opacity:1;stroke:none;stroke-width:0.11541598;stroke-opacity:1"
         y="36.445644"
         x="158.03812"
         id="tspan1165"
         sodipodi:role="line">documentation...</tspan></text>
    <text
       xml:space="preserve"
       style="font-style:normal;font-variant:normal;font-weight:normal;font-stretch:normal;font-size:4.61663866px;line-height:1.25;font-family:'Yu Gothic';-inkscape-font-specification:'Yu Gothic';letter-spacing:0px;word-spacing:0px;fill:#3f425b;fill-opacity:1;stroke:none;stroke-width:0.11541598;stroke-opacity:1"
       x="158.03812"
       y="45.959621"
       id="text1171"
       transform="scale(0.98377558,1.016492)"><tspan
         sodipodi:role="line"
         id="tspan1169"
         x="158.03812"
         y="45.959621"
         style="font-style:normal;font-variant:normal;font-weight:normal;font-stretch:normal;font-family:'Yu Gothic';-inkscape-font-specification:'Yu Gothic';fill:#3f425b;fill-opacity:1;stroke:none;stroke-width:0.11541598;stroke-opacity:1">file_explorer.py</tspan></text>
    <rect
       y="50.329605"
       x="134.37579"
       height="10.065856"
       width="67.187881"
       id="rect1175"
       style="opacity:1;fill:#ffffff;fill-opacity:1;stroke:none;stroke-width:0.26458332;stroke-linejoin:miter;stroke-miterlimit:4;stroke-dasharray:none;stroke-dashoffset:0;stroke-opacity:1" />
    <text
       transform="scale(0.98377558,1.016492)"
       id="text1179"
       y="55.860775"
       x="158.03812"
       style="font-style:normal;font-variant:normal;font-weight:normal;font-stretch:normal;font-size:4.61663866px;line-height:1.25;font-family:'Yu Gothic';-inkscape-font-specification:'Yu Gothic';letter-spacing:0px;word-spacing:0px;fill:#3f425b;fill-opacity:1;stroke:none;stroke-width:0.11541598;stroke-opacity:1"
       xml:space="preserve"><tspan
         style="font-style:normal;font-variant:normal;font-weight:normal;font-stretch:normal;font-family:'Yu Gothic';-inkscape-font-specification:'Yu Gothic';fill:#3f425b;fill-opacity:1;stroke:none;stroke-width:0.11541598;stroke-opacity:1"
         y="55.860775"
         x="158.03812"
         id="tspan1177"
         sodipodi:role="line">snake.py</tspan></text>
    <rect
       style="opacity:1;fill:#ffffff;fill-opacity:1;stroke:none;stroke-width:0.26458332;stroke-linejoin:miter;stroke-miterlimit:4;stroke-dasharray:none;stroke-dashoffset:0;stroke-opacity:1"
       id="rect1181"
       width="67.187881"
       height="10.065856"
       x="134.37576"
       y="60.395462" />
    <text
       xml:space="preserve"
       style="font-style:normal;font-variant:normal;font-weight:normal;font-stretch:normal;font-size:4.61663866px;line-height:1.25;font-family:'Yu Gothic';-inkscape-font-specification:'Yu Gothic';letter-spacing:0px;word-spacing:0px;fill:#3f425b;fill-opacity:1;stroke:none;stroke-width:0.11541598;stroke-opacity:1"
       x="158.03812"
       y="65.763329"
       id="text1185"
       transform="scale(0.98377558,1.016492)"><tspan
         sodipodi:role="line"
         id="tspan1183"
         x="158.03812"
         y="65.763329"
         style="font-style:normal;font-variant:normal;font-weight:normal;font-stretch:normal;font-family:'Yu Gothic';-inkscape-font-specification:'Yu Gothic';fill:#3f425b;fill-opacity:1;stroke:none;stroke-width:0.11541598;stroke-opacity:1">sphere.py</tspan></text>
    <path
       style="opacity:1;fill:#028297;stroke-width:0.01133101"
       d="m 148.69547,68.388414 c -0.1269,-0.0141 -0.21678,-0.0308 -0.37393,-0.0699 -0.43913,-0.10863 -0.71146,-0.31081 -0.79656,-0.59137 -0.0149,-0.0492 -0.0183,-0.16569 -0.022,-0.755 -0.002,-0.44097 0,-0.73708 0.007,-0.80643 0.0205,-0.18805 0.0865,-0.32942 0.21257,-0.45514 0.0831,-0.0829 0.16409,-0.13404 0.27741,-0.17544 l 0.0831,-0.0304 0.84982,-0.005 0.84982,-0.005 0.0793,-0.0264 c 0.25322,-0.0846 0.45186,-0.25504 0.56044,-0.48124 0.0802,-0.16716 0.0827,-0.18384 0.09,-0.61905 l 0.006,-0.39093 0.27761,-0.003 c 0.15267,-0.002 0.3119,0.002 0.35384,0.008 0.31204,0.0479 0.50045,0.27763 0.61478,0.74952 0.0745,0.30754 0.10134,0.53823 0.0936,0.80257 -0.007,0.23937 -0.0317,0.37595 -0.11137,0.61806 -0.12958,0.39414 -0.26768,0.58544 -0.48049,0.66558 l -0.068,0.0256 -1.1331,0.005 -1.13309,0.005 -0.003,0.0878 -0.003,0.0878 h 0.69595 c 0.60497,0 0.6978,0.002 0.71008,0.017 0.011,0.013 0.0128,0.0892 0.008,0.32577 -0.004,0.27291 -0.008,0.31731 -0.0293,0.38241 -0.10021,0.31086 -0.43308,0.51103 -1.0188,0.61268 -0.15241,0.0264 -0.45633,0.0375 -0.59777,0.0217 z m 1.11475,-0.47811 c 0.0516,-0.0157 0.12489,-0.0836 0.15019,-0.13924 0.0407,-0.0893 0.0179,-0.22464 -0.0504,-0.29895 -0.0352,-0.0384 -0.13034,-0.0804 -0.1821,-0.0805 -0.10545,-2.3e-4 -0.2132,0.069 -0.25065,0.16116 -0.0483,0.1191 -0.004,0.26611 0.0998,0.33024 0.0817,0.0504 0.13633,0.0568 0.23325,0.0274 z m -3.15783,-1.08558 c -0.28142,-0.0741 -0.46977,-0.31034 -0.56802,-0.71265 -0.0736,-0.30109 -0.0857,-0.40131 -0.0854,-0.70354 2.2e-4,-0.23736 0.004,-0.29814 0.0257,-0.41925 0.0463,-0.25767 0.0881,-0.40507 0.15117,-0.53255 0.0517,-0.10467 0.0718,-0.13197 0.16751,-0.22703 0.12245,-0.12176 0.22836,-0.18364 0.39195,-0.22899 0.0901,-0.025 0.0965,-0.0253 1.13268,-0.0285 0.80215,-0.002 1.04405,-0.006 1.05077,-0.0172 0.0139,-0.0219 0.011,-0.13815 -0.004,-0.15313 -0.009,-0.009 -0.18301,-0.0136 -0.70797,-0.0136 h -0.69436 l -0.007,-0.03 c -0.0139,-0.0556 0.004,-0.67241 0.0227,-0.75379 0.0506,-0.2283 0.19526,-0.3612 0.48292,-0.44389 0.38736,-0.11132 1.11544,-0.13278 1.60765,-0.0474 0.35519,0.0616 0.61908,0.27768 0.70091,0.57386 0.0182,0.0657 0.0199,0.14191 0.0199,0.84276 0,0.86044 0.002,0.83081 -0.0811,1.00278 -0.0575,0.1183 -0.1915,0.25227 -0.3097,0.30967 -0.15912,0.0772 -0.13776,0.0757 -0.97432,0.0757 -0.45483,0 -0.7916,0.004 -0.84834,0.0118 -0.36229,0.0453 -0.64325,0.28137 -0.76179,0.63974 -0.0247,0.0749 -0.0266,0.10082 -0.0325,0.4759 l -0.006,0.39659 -0.29461,0.002 c -0.25919,0.002 -0.30456,-3.3e-4 -0.37742,-0.0195 z m 1.61265,-3.43907 c 0.14781,-0.092 0.16469,-0.30707 0.0332,-0.4228 -0.0837,-0.0738 -0.18467,-0.0891 -0.28265,-0.0428 -0.0676,0.0319 -0.0983,0.0631 -0.12936,0.1317 -0.0447,0.0985 -0.0256,0.21584 0.0478,0.29315 0.0568,0.0598 0.11411,0.0822 0.2019,0.078 0.0597,-0.002 0.086,-0.009 0.12911,-0.0371 z"
       id="path1187"
       inkscape:connector-curvature="0" />
    <path
       inkscape:connector-curvature="0"
       id="path1189"
       d="m 148.69547,58.322554 c -0.1269,-0.0141 -0.21678,-0.0308 -0.37393,-0.0699 -0.43913,-0.10863 -0.71146,-0.31081 -0.79656,-0.59137 -0.0149,-0.0492 -0.0183,-0.16569 -0.022,-0.755 -0.002,-0.44097 0,-0.73708 0.007,-0.80643 0.0205,-0.18805 0.0865,-0.32942 0.21257,-0.45514 0.0831,-0.0829 0.16409,-0.13404 0.27741,-0.17544 l 0.0831,-0.0304 0.84982,-0.005 0.84982,-0.005 0.0793,-0.0264 c 0.25322,-0.0846 0.45186,-0.25504 0.56044,-0.48124 0.0802,-0.16716 0.0827,-0.18384 0.09,-0.61905 l 0.006,-0.39093 0.27761,-0.003 c 0.15267,-0.002 0.3119,0.002 0.35384,0.008 0.31204,0.0479 0.50045,0.27763 0.61478,0.74952 0.0745,0.30754 0.10134,0.53823 0.0936,0.80257 -0.007,0.23937 -0.0317,0.37595 -0.11137,0.61806 -0.12958,0.39414 -0.26768,0.58544 -0.48049,0.66558 l -0.068,0.0256 -1.1331,0.005 -1.13309,0.005 -0.003,0.0878 -0.003,0.0878 h 0.69595 c 0.60497,0 0.6978,0.002 0.71008,0.017 0.011,0.013 0.0128,0.0892 0.008,0.32577 -0.004,0.27291 -0.008,0.31731 -0.0293,0.38241 -0.10021,0.31086 -0.43308,0.51103 -1.0188,0.61268 -0.15241,0.0264 -0.45633,0.0375 -0.59777,0.0217 z m 1.11475,-0.47811 c 0.0516,-0.0157 0.12489,-0.0836 0.15019,-0.13924 0.0407,-0.0893 0.0179,-0.22464 -0.0504,-0.29895 -0.0352,-0.0384 -0.13034,-0.0804 -0.1821,-0.0805 -0.10545,-2.3e-4 -0.2132,0.069 -0.25065,0.16116 -0.0483,0.1191 -0.004,0.26611 0.0998,0.33024 0.0817,0.0504 0.13633,0.0568 0.23325,0.0274 z m -3.15783,-1.08558 c -0.28142,-0.0741 -0.46977,-0.31034 -0.56802,-0.71265 -0.0736,-0.30109 -0.0857,-0.40131 -0.0854,-0.70354 2.2e-4,-0.23736 0.004,-0.29814 0.0257,-0.41925 0.0463,-0.25767 0.0881,-0.40507 0.15117,-0.53255 0.0517,-0.10467 0.0718,-0.13197 0.16751,-0.22703 0.12245,-0.12176 0.22836,-0.18364 0.39195,-0.22899 0.0901,-0.025 0.0965,-0.0253 1.13268,-0.0285 0.80215,-0.002 1.04405,-0.006 1.05077,-0.0172 0.0139,-0.0219 0.011,-0.13815 -0.004,-0.15313 -0.009,-0.009 -0.18301,-0.0136 -0.70797,-0.0136 h -0.69436 l -0.007,-0.03 c -0.0139,-0.0556 0.004,-0.67241 0.0227,-0.75379 0.0506,-0.2283 0.19526,-0.3612 0.48292,-0.44389 0.38736,-0.11132 1.11544,-0.13278 1.60765,-0.0474 0.35519,0.0616 0.61908,0.27768 0.70091,0.57386 0.0182,0.0657 0.0199,0.14191 0.0199,0.84276 0,0.86044 0.002,0.83081 -0.0811,1.00278 -0.0575,0.1183 -0.1915,0.25227 -0.3097,0.30967 -0.15912,0.0772 -0.13776,0.0757 -0.97432,0.0757 -0.45483,0 -0.7916,0.004 -0.84834,0.0118 -0.36229,0.0453 -0.64325,0.28137 -0.76179,0.63974 -0.0247,0.0749 -0.0266,0.10082 -0.0325,0.4759 l -0.006,0.39659 -0.29461,0.002 c -0.25919,0.002 -0.30456,-3.3e-4 -0.37742,-0.0195 z m 1.61265,-3.43907 c 0.14781,-0.092 0.16469,-0.30707 0.0332,-0.4228 -0.0837,-0.0738 -0.18467,-0.0891 -0.28265,-0.0428 -0.0676,0.0319 -0.0983,0.0631 -0.12936,0.1317 -0.0447,0.0985 -0.0256,0.21584 0.0478,0.29315 0.0568,0.0598 0.11411,0.0822 0.2019,0.078 0.0597,-0.002 0.086,-0.009 0.12911,-0.0371 z"
       style="opacity:1;fill:#028297;stroke-width:0.01133101" />
    <path
       style="opacity:1;fill:#028297;stroke-width:0.01133101"
       d="m 148.69547,48.258104 c -0.1269,-0.0141 -0.21678,-0.0308 -0.37393,-0.0699 -0.43913,-0.10863 -0.71146,-0.31081 -0.79656,-0.59137 -0.0149,-0.0492 -0.0183,-0.16569 -0.022,-0.755 -0.002,-0.44097 0,-0.73708 0.007,-0.80643 0.0205,-0.18805 0.0865,-0.32942 0.21257,-0.45514 0.0831,-0.0829 0.16409,-0.13404 0.27741,-0.17544 l 0.0831,-0.0304 0.84982,-0.005 0.84982,-0.005 0.0793,-0.0264 c 0.25322,-0.0846 0.45186,-0.25504 0.56044,-0.48124 0.0802,-0.16716 0.0827,-0.18384 0.09,-0.61905 l 0.006,-0.39093 0.27761,-0.003 c 0.15267,-0.002 0.3119,0.002 0.35384,0.008 0.31204,0.0479 0.50045,0.27763 0.61478,0.74952 0.0745,0.30754 0.10134,0.53823 0.0936,0.80257 -0.007,0.23937 -0.0317,0.37595 -0.11137,0.61806 -0.12958,0.39414 -0.26768,0.58544 -0.48049,0.66558 l -0.068,0.0256 -1.1331,0.005 -1.13309,0.005 -0.003,0.0878 -0.003,0.0878 h 0.69595 c 0.60497,0 0.6978,0.002 0.71008,0.017 0.011,0.013 0.0128,0.0892 0.008,0.32577 -0.004,0.27291 -0.008,0.31731 -0.0293,0.38241 -0.10021,0.31086 -0.43308,0.51103 -1.0188,0.61268 -0.15241,0.0264 -0.45633,0.0375 -0.59777,0.0217 z m 1.11475,-0.47811 c 0.0516,-0.0157 0.12489,-0.0836 0.15019,-0.13924 0.0407,-0.0893 0.0179,-0.22464 -0.0504,-0.29895 -0.0352,-0.0384 -0.13034,-0.0804 -0.1821,-0.0805 -0.10545,-2.3e-4 -0.2132,0.069 -0.25065,0.16116 -0.0483,0.1191 -0.004,0.26611 0.0998,0.33024 0.0817,0.0504 0.13633,0.0568 0.23325,0.0274 z m -3.15783,-1.08558 c -0.28142,-0.0741 -0.46977,-0.31034 -0.56802,-0.71265 -0.0736,-0.30109 -0.0857,-0.40131 -0.0854,-0.70354 2.2e-4,-0.23736 0.004,-0.29814 0.0257,-0.41925 0.0463,-0.25767 0.0881,-0.40507 0.15117,-0.53255 0.0517,-0.10467 0.0718,-0.13197 0.16751,-0.22703 0.12245,-0.12176 0.22836,-0.18364 0.39195,-0.22899 0.0901,-0.025 0.0965,-0.0253 1.13268,-0.0285 0.80215,-0.002 1.04405,-0.006 1.05077,-0.0172 0.0139,-0.0219 0.011,-0.13815 -0.004,-0.15313 -0.009,-0.009 -0.18301,-0.0136 -0.70797,-0.0136 h -0.69436 l -0.007,-0.03 c -0.0139,-0.0556 0.004,-0.67241 0.0227,-0.75379 0.0506,-0.2283 0.19526,-0.3612 0.48292,-0.44389 0.38736,-0.11132 1.11544,-0.13278 1.60765,-0.0474 0.35519,0.0616 0.61908,0.27768 0.70091,0.57386 0.0182,0.0657 0.0199,0.14191 0.0199,0.84276 0,0.86044 0.002,0.83081 -0.0811,1.00278 -0.0575,0.1183 -0.1915,0.25227 -0.3097,0.30967 -0.15912,0.0772 -0.13776,0.0757 -0.97432,0.0757 -0.45483,0 -0.7916,0.004 -0.84834,0.0118 -0.36229,0.0453 -0.64325,0.28137 -0.76179,0.63974 -0.0247,0.0749 -0.0266,0.10082 -0.0325,0.4759 l -0.006,0.39659 -0.29461,0.002 c -0.25919,0.002 -0.30456,-3.3e-4 -0.37742,-0.0195 z m 1.61265,-3.43907 c 0.14781,-0.092 0.16469,-0.30707 0.0332,-0.4228 -0.0837,-0.0738 -0.18467,-0.0891 -0.28265,-0.0428 -0.0676,0.0319 -0.0983,0.0631 -0.12936,0.1317 -0.0447,0.0985 -0.0256,0.21584 0.0478,0.29315 0.0568,0.0598 0.11411,0.0822 0.2019,0.078 0.0597,-0.002 0.086,-0.009 0.12911,-0.0371 z"
       id="path1191"
       inkscape:connector-curvature="0" />
    <path
       inkscape:connector-curvature="0"
       id="path1193"
       d="m 148.69547,28.124954 c -0.1269,-0.0141 -0.21678,-0.0308 -0.37393,-0.0699 -0.43913,-0.10863 -0.71146,-0.31081 -0.79656,-0.59137 -0.0149,-0.0492 -0.0183,-0.16569 -0.022,-0.755 -0.002,-0.44097 0,-0.73708 0.007,-0.80643 0.0205,-0.18805 0.0865,-0.32942 0.21257,-0.45514 0.0831,-0.0829 0.16409,-0.13404 0.27741,-0.17544 l 0.0831,-0.0304 0.84982,-0.005 0.84982,-0.005 0.0793,-0.0264 c 0.25322,-0.0846 0.45186,-0.25504 0.56044,-0.48124 0.0802,-0.16716 0.0827,-0.18384 0.09,-0.61905 l 0.006,-0.39093 0.27761,-0.003 c 0.15267,-0.002 0.3119,0.002 0.35384,0.008 0.31204,0.0479 0.50045,0.27763 0.61478,0.74952 0.0745,0.30754 0.10134,0.53823 0.0936,0.80257 -0.007,0.23937 -0.0317,0.37595 -0.11137,0.61806 -0.12958,0.39414 -0.26768,0.58544 -0.48049,0.66558 l -0.068,0.0256 -1.1331,0.005 -1.13309,0.005 -0.003,0.0878 -0.003,0.0878 h 0.69595 c 0.60497,0 0.6978,0.002 0.71008,0.017 0.011,0.013 0.0128,0.0892 0.008,0.32577 -0.004,0.27291 -0.008,0.31731 -0.0293,0.38241 -0.10021,0.31086 -0.43308,0.51103 -1.0188,0.61268 -0.15241,0.0264 -0.45633,0.0375 -0.59777,0.0217 z m 1.11475,-0.47811 c 0.0516,-0.0157 0.12489,-0.0836 0.15019,-0.13924 0.0407,-0.0893 0.0179,-0.22464 -0.0504,-0.29895 -0.0352,-0.0384 -0.13034,-0.0804 -0.1821,-0.0805 -0.10545,-2.3e-4 -0.2132,0.069 -0.25065,0.16116 -0.0483,0.1191 -0.004,0.26611 0.0998,0.33024 0.0817,0.0504 0.13633,0.0568 0.23325,0.0274 z m -3.15783,-1.08558 c -0.28142,-0.0741 -0.46977,-0.31034 -0.56802,-0.71265 -0.0736,-0.30109 -0.0857,-0.40131 -0.0854,-0.70354 2.2e-4,-0.23736 0.004,-0.29814 0.0257,-0.41925 0.0463,-0.25767 0.0881,-0.40507 0.15117,-0.53255 0.0517,-0.10467 0.0718,-0.13197 0.16751,-0.22703 0.12245,-0.12176 0.22836,-0.18364 0.39195,-0.22899 0.0901,-0.025 0.0965,-0.0253 1.13268,-0.0285 0.80215,-0.002 1.04405,-0.006 1.05077,-0.0172 0.0139,-0.0219 0.011,-0.13815 -0.004,-0.15313 -0.009,-0.009 -0.18301,-0.0136 -0.70797,-0.0136 h -0.69436 l -0.007,-0.03 c -0.0139,-0.0556 0.004,-0.67241 0.0227,-0.75379 0.0506,-0.2283 0.19526,-0.3612 0.48292,-0.44389 0.38736,-0.11132 1.11544,-0.13278 1.60765,-0.0474 0.35519,0.0616 0.61908,0.27768 0.70091,0.57386 0.0182,0.0657 0.0199,0.14191 0.0199,0.84276 0,0.86044 0.002,0.83081 -0.0811,1.00278 -0.0575,0.1183 -0.1915,0.25227 -0.3097,0.30967 -0.15912,0.0772 -0.13776,0.0757 -0.97432,0.0757 -0.45483,0 -0.7916,0.004 -0.84834,0.0118 -0.36229,0.0453 -0.64325,0.28137 -0.76179,0.63974 -0.0247,0.0749 -0.0266,0.10082 -0.0325,0.4759 l -0.006,0.39659 -0.29461,0.002 c -0.25919,0.002 -0.30456,-3.3e-4 -0.37742,-0.0195 z m 1.61265,-3.43907 c 0.14781,-0.092 0.16469,-0.30707 0.0332,-0.4228 -0.0837,-0.0738 -0.18467,-0.0891 -0.28265,-0.0428 -0.0676,0.0319 -0.0983,0.0631 -0.12936,0.1317 -0.0447,0.0985 -0.0256,0.21584 0.0478,0.29315 0.0568,0.0598 0.11411,0.0822 0.2019,0.078 0.0597,-0.002 0.086,-0.009 0.12911,-0.0371 z"
       style="opacity:1;fill:#028297;stroke-width:0.01133101" />
    <rect
       y="70.461319"
       x="134.37576"
       height="10.065856"
       width="67.187881"
       id="rect1197"
       style="opacity:1;fill:#ffffff;fill-opacity:1;stroke:none;stroke-width:0.26458332;stroke-linejoin:miter;stroke-miterlimit:4;stroke-dasharray:none;stroke-dashoffset:0;stroke-opacity:1" />
    <text
       transform="scale(0.98377558,1.016492)"
       id="text1201"
       y="75.665886"
       x="158.03812"
       style="font-style:normal;font-variant:normal;font-weight:normal;font-stretch:normal;font-size:4.61663866px;line-height:1.25;font-family:'Yu Gothic';-inkscape-font-specification:'Yu Gothic';letter-spacing:0px;word-spacing:0px;fill:#3f425b;fill-opacity:1;stroke:none;stroke-width:0.11541598;stroke-opacity:1"
       xml:space="preserve"><tspan
         style="font-style:normal;font-variant:normal;font-weight:normal;font-stretch:normal;font-family:'Yu Gothic';-inkscape-font-specification:'Yu Gothic';fill:#3f425b;fill-opacity:1;stroke:none;stroke-width:0.11541598;stroke-opacity:1"
         y="75.665886"
         x="158.03812"
         id="tspan1199"
         sodipodi:role="line">web_search.py</tspan></text>
    <path
       inkscape:connector-curvature="0"
       id="path1203"
       d="m 148.69547,78.454264 c -0.1269,-0.0141 -0.21678,-0.0308 -0.37393,-0.0699 -0.43913,-0.10863 -0.71146,-0.31081 -0.79656,-0.59137 -0.0149,-0.0492 -0.0183,-0.16569 -0.022,-0.755 -0.002,-0.44097 0,-0.73708 0.007,-0.80643 0.0205,-0.18805 0.0865,-0.32942 0.21257,-0.45514 0.0831,-0.0829 0.16409,-0.13404 0.27741,-0.17544 l 0.0831,-0.0304 0.84982,-0.005 0.84982,-0.005 0.0793,-0.0264 c 0.25322,-0.0846 0.45186,-0.25504 0.56044,-0.48124 0.0802,-0.16716 0.0827,-0.18384 0.09,-0.61905 l 0.006,-0.39093 0.27761,-0.003 c 0.15267,-0.002 0.3119,0.002 0.35384,0.008 0.31204,0.0479 0.50045,0.27763 0.61478,0.74952 0.0745,0.30754 0.10134,0.53823 0.0936,0.80257 -0.007,0.23937 -0.0317,0.37595 -0.11137,0.61806 -0.12958,0.39414 -0.26768,0.58544 -0.48049,0.66558 l -0.068,0.0256 -1.1331,0.005 -1.13309,0.005 -0.003,0.0878 -0.003,0.0878 h 0.69595 c 0.60497,0 0.6978,0.002 0.71008,0.017 0.011,0.013 0.0128,0.0892 0.008,0.32577 -0.004,0.27291 -0.008,0.31731 -0.0293,0.38241 -0.10021,0.31086 -0.43308,0.51103 -1.0188,0.61268 -0.15241,0.0264 -0.45633,0.0375 -0.59777,0.0217 z m 1.11475,-0.47811 c 0.0516,-0.0157 0.12489,-0.0836 0.15019,-0.13924 0.0407,-0.0893 0.0179,-0.22464 -0.0504,-0.29895 -0.0352,-0.0384 -0.13034,-0.0804 -0.1821,-0.0805 -0.10545,-2.3e-4 -0.2132,0.069 -0.25065,0.16116 -0.0483,0.1191 -0.004,0.26611 0.0998,0.33024 0.0817,0.0504 0.13633,0.0568 0.23325,0.0274 z m -3.15783,-1.08558 c -0.28142,-0.0741 -0.46977,-0.31034 -0.56802,-0.71265 -0.0736,-0.30109 -0.0857,-0.40131 -0.0854,-0.70354 2.2e-4,-0.23736 0.004,-0.29814 0.0257,-0.41925 0.0463,-0.25767 0.0881,-0.40507 0.15117,-0.53255 0.0517,-0.10467 0.0718,-0.13197 0.16751,-0.22703 0.12245,-0.12176 0.22836,-0.18364 0.39195,-0.22899 0.0901,-0.025 0.0965,-0.0253 1.13268,-0.0285 0.80215,-0.002 1.04405,-0.006 1.05077,-0.0172 0.0139,-0.0219 0.011,-0.13815 -0.004,-0.15313 -0.009,-0.009 -0.18301,-0.0136 -0.70797,-0.0136 h -0.69436 l -0.007,-0.03 c -0.0139,-0.0556 0.004,-0.67241 0.0227,-0.75379 0.0506,-0.2283 0.19526,-0.3612 0.48292,-0.44389 0.38736,-0.11132 1.11544,-0.13278 1.60765,-0.0474 0.35519,0.0616 0.61908,0.27768 0.70091,0.57386 0.0182,0.0657 0.0199,0.14191 0.0199,0.84276 0,0.86044 0.002,0.83081 -0.0811,1.00278 -0.0575,0.1183 -0.1915,0.25227 -0.3097,0.30967 -0.15912,0.0772 -0.13776,0.0757 -0.97432,0.0757 -0.45483,0 -0.7916,0.004 -0.84834,0.0118 -0.36229,0.0453 -0.64325,0.28137 -0.76179,0.63974 -0.0247,0.0749 -0.0266,0.10082 -0.0325,0.4759 l -0.006,0.39659 -0.29461,0.002 c -0.25919,0.002 -0.30456,-3.3e-4 -0.37742,-0.0195 z m 1.61265,-3.43907 c 0.14781,-0.092 0.16469,-0.30707 0.0332,-0.4228 -0.0837,-0.0738 -0.18467,-0.0891 -0.28265,-0.0428 -0.0676,0.0319 -0.0983,0.0631 -0.12936,0.1317 -0.0447,0.0985 -0.0256,0.21584 0.0478,0.29315 0.0568,0.0598 0.11411,0.0822 0.2019,0.078 0.0597,-0.002 0.086,-0.009 0.12911,-0.0371 z"
       style="opacity:1;fill:#028297;stroke-width:0.01133101" />
    <rect
       y="0.00028855132"
       x="201.56363"
       height="10.065856"
       width="67.187881"
       id="rect1207"
       style="opacity:1;fill:#1389ff;fill-opacity:1;stroke:none;stroke-width:0.26458332;stroke-linejoin:miter;stroke-miterlimit:4;stroke-dasharray:none;stroke-dashoffset:0;stroke-opacity:1" />
    <path
       inkscape:connector-curvature="0"
       id="path1217"
       d="m 202.74485,4.24309 1.44102,1.44104 1.3938,-1.39379"
       style="fill:none;stroke:#ffffff;stroke-width:0.40000001;stroke-linecap:round;stroke-linejoin:round;stroke-miterlimit:4;stroke-dasharray:none;stroke-opacity:1" />
    <path
       sodipodi:nodetypes="ccccccc"
       inkscape:connector-curvature="0"
       id="path1219"
       d="m 208.65765,3.05034 v 3.91717 h 4.33477 V 3.72686 h -2.37201 l -0.38497,-0.66678 z"
       style="fill:none;stroke:#fefefe;stroke-width:0.40000001;stroke-linecap:round;stroke-linejoin:round;stroke-miterlimit:4;stroke-dasharray:none;stroke-opacity:1" />
    <text
       id="text1223"
       y="6.5554223"
       x="217.33786"
       style="font-style:normal;font-weight:normal;font-size:4.22728348px;line-height:1.25;font-family:sans-serif;letter-spacing:0px;word-spacing:0px;fill:#ffffff;fill-opacity:1;stroke:none;stroke-width:0.1056821"
       xml:space="preserve"><tspan
         style="fill:#ffffff;fill-opacity:1;stroke-width:0.1056821"
         y="6.5554223"
         x="217.33786"
         id="tspan1221"
         sodipodi:role="line">Platformer</tspan></text>
    <rect
       style="opacity:1;fill:#ffffff;fill-opacity:1;stroke:none;stroke-width:0.26458332;stroke-linejoin:miter;stroke-miterlimit:4;stroke-dasharray:none;stroke-dashoffset:0;stroke-opacity:1"
       id="rect1456"
       width="67.187881"
       height="10.065856"
       x="201.56363"
       y="60.395432" />
    <text
       transform="scale(0.98377558,1.016492)"
       id="text1259"
       y="65.763298"
       x="226.33414"
       style="font-style:normal;font-variant:normal;font-weight:normal;font-stretch:normal;font-size:4.61663866px;line-height:1.25;font-family:'Yu Gothic';-inkscape-font-specification:'Yu Gothic';letter-spacing:0px;word-spacing:0px;fill:#3f425b;fill-opacity:1;stroke:none;stroke-width:0.11541598;stroke-opacity:1"
       xml:space="preserve"><tspan
         style="font-style:normal;font-variant:normal;font-weight:normal;font-stretch:normal;font-family:'Yu Gothic';-inkscape-font-specification:'Yu Gothic';fill:#3f425b;fill-opacity:1;stroke:none;stroke-width:0.11541598;stroke-opacity:1"
         y="65.763298"
         x="226.33414"
         id="tspan1257"
         sodipodi:role="line">plat_variables.py</tspan></text>
    <path
       inkscape:connector-curvature="0"
       id="path1261"
       d="m 215.88336,68.388384 c -0.1269,-0.0141 -0.21678,-0.0308 -0.37393,-0.0699 -0.43913,-0.10863 -0.71146,-0.31081 -0.79656,-0.59137 -0.0149,-0.0492 -0.0183,-0.16569 -0.022,-0.755 -0.002,-0.44097 0,-0.73708 0.007,-0.80643 0.0205,-0.18805 0.0865,-0.32942 0.21257,-0.45514 0.0831,-0.0829 0.16409,-0.13404 0.27741,-0.17544 l 0.0831,-0.0304 0.84982,-0.005 0.84982,-0.005 0.0793,-0.0264 c 0.25322,-0.0846 0.45186,-0.25504 0.56044,-0.48124 0.0802,-0.16716 0.0827,-0.18384 0.09,-0.61905 l 0.006,-0.39093 0.27761,-0.003 c 0.15267,-0.002 0.3119,0.002 0.35384,0.008 0.31204,0.0479 0.50045,0.27763 0.61478,0.74952 0.0745,0.30754 0.10134,0.53823 0.0936,0.80257 -0.007,0.23937 -0.0317,0.37595 -0.11137,0.61806 -0.12958,0.39414 -0.26768,0.58544 -0.48049,0.66558 l -0.068,0.0256 -1.1331,0.005 -1.13309,0.005 -0.003,0.0878 -0.003,0.0878 h 0.69595 c 0.60497,0 0.6978,0.002 0.71008,0.017 0.011,0.013 0.0128,0.0892 0.008,0.32577 -0.004,0.27291 -0.008,0.31731 -0.0293,0.38241 -0.10021,0.31086 -0.43308,0.51103 -1.0188,0.61268 -0.15241,0.0264 -0.45633,0.0375 -0.59777,0.0217 z m 1.11475,-0.47811 c 0.0516,-0.0157 0.12489,-0.0836 0.15019,-0.13924 0.0407,-0.0893 0.0179,-0.22464 -0.0504,-0.29895 -0.0352,-0.0384 -0.13034,-0.0804 -0.1821,-0.0805 -0.10545,-2.3e-4 -0.2132,0.069 -0.25065,0.16116 -0.0483,0.1191 -0.004,0.26611 0.0998,0.33024 0.0817,0.0504 0.13633,0.0568 0.23325,0.0274 z m -3.15783,-1.08558 c -0.28142,-0.0741 -0.46977,-0.31034 -0.56802,-0.71265 -0.0736,-0.30109 -0.0857,-0.40131 -0.0854,-0.70354 2.2e-4,-0.23736 0.004,-0.29814 0.0257,-0.41925 0.0463,-0.25767 0.0881,-0.40507 0.15117,-0.53255 0.0517,-0.10467 0.0718,-0.13197 0.16751,-0.22703 0.12245,-0.12176 0.22836,-0.18364 0.39195,-0.22899 0.0901,-0.025 0.0965,-0.0253 1.13268,-0.0285 0.80215,-0.002 1.04405,-0.006 1.05077,-0.0172 0.0139,-0.0219 0.011,-0.13815 -0.004,-0.15313 -0.009,-0.009 -0.18301,-0.0136 -0.70797,-0.0136 h -0.69436 l -0.007,-0.03 c -0.0139,-0.0556 0.004,-0.67241 0.0227,-0.75379 0.0506,-0.2283 0.19526,-0.3612 0.48292,-0.44389 0.38736,-0.11132 1.11544,-0.13278 1.60765,-0.0474 0.35519,0.0616 0.61908,0.27768 0.70091,0.57386 0.0182,0.0657 0.0199,0.14191 0.0199,0.84276 0,0.86044 0.002,0.83081 -0.0811,1.00278 -0.0575,0.1183 -0.1915,0.25227 -0.3097,0.30967 -0.15912,0.0772 -0.13776,0.0757 -0.97432,0.0757 -0.45483,0 -0.7916,0.004 -0.84834,0.0118 -0.36229,0.0453 -0.64325,0.28137 -0.76179,0.63974 -0.0247,0.0749 -0.0266,0.10082 -0.0325,0.4759 l -0.006,0.39659 -0.29461,0.002 c -0.25919,0.002 -0.30456,-3.3e-4 -0.37742,-0.0195 z m 1.61265,-3.43907 c 0.14781,-0.092 0.16469,-0.30707 0.0332,-0.4228 -0.0837,-0.0738 -0.18467,-0.0891 -0.28265,-0.0428 -0.0676,0.0319 -0.0983,0.0631 -0.12936,0.1317 -0.0447,0.0985 -0.0256,0.21584 0.0478,0.29315 0.0568,0.0598 0.11411,0.0822 0.2019,0.078 0.0597,-0.002 0.086,-0.009 0.12911,-0.0371 z"
       style="opacity:1;fill:#028297;stroke-width:0.01133101" />
    <rect
       y="50.329575"
       x="201.56363"
       height="10.065856"
       width="67.187881"
       id="rect1255"
       style="opacity:1;fill:#ffffff;fill-opacity:1;stroke:none;stroke-width:0.26458332;stroke-linejoin:miter;stroke-miterlimit:4;stroke-dasharray:none;stroke-dashoffset:0;stroke-opacity:1" />
    <text
       xml:space="preserve"
       style="font-style:normal;font-variant:normal;font-weight:normal;font-stretch:normal;font-size:4.61663866px;line-height:1.25;font-family:'Yu Gothic';-inkscape-font-specification:'Yu Gothic';letter-spacing:0px;word-spacing:0px;fill:#3f425b;fill-opacity:1;stroke:none;stroke-width:0.11541598;stroke-opacity:1"
       x="226.33414"
       y="55.860744"
       id="text1253"
       transform="scale(0.98377558,1.016492)"><tspan
         sodipodi:role="line"
         id="tspan1251"
         x="226.33414"
         y="55.860744"
         style="font-style:normal;font-variant:normal;font-weight:normal;font-stretch:normal;font-family:'Yu Gothic';-inkscape-font-specification:'Yu Gothic';fill:#3f425b;fill-opacity:1;stroke:none;stroke-width:0.11541598;stroke-opacity:1">math_utils.py</tspan></text>
    <path
       style="opacity:1;fill:#028297;stroke-width:0.01133101"
       d="m 215.88336,58.322524 c -0.1269,-0.0141 -0.21678,-0.0308 -0.37393,-0.0699 -0.43913,-0.10863 -0.71146,-0.31081 -0.79656,-0.59137 -0.0149,-0.0492 -0.0183,-0.16569 -0.022,-0.755 -0.002,-0.44097 0,-0.73708 0.007,-0.80643 0.0205,-0.18805 0.0865,-0.32942 0.21257,-0.45514 0.0831,-0.0829 0.16409,-0.13404 0.27741,-0.17544 l 0.0831,-0.0304 0.84982,-0.005 0.84982,-0.005 0.0793,-0.0264 c 0.25322,-0.0846 0.45186,-0.25504 0.56044,-0.48124 0.0802,-0.16716 0.0827,-0.18384 0.09,-0.61905 l 0.006,-0.39093 0.27761,-0.003 c 0.15267,-0.002 0.3119,0.002 0.35384,0.008 0.31204,0.0479 0.50045,0.27763 0.61478,0.74952 0.0745,0.30754 0.10134,0.53823 0.0936,0.80257 -0.007,0.23937 -0.0317,0.37595 -0.11137,0.61806 -0.12958,0.39414 -0.26768,0.58544 -0.48049,0.66558 l -0.068,0.0256 -1.1331,0.005 -1.13309,0.005 -0.003,0.0878 -0.003,0.0878 h 0.69595 c 0.60497,0 0.6978,0.002 0.71008,0.017 0.011,0.013 0.0128,0.0892 0.008,0.32577 -0.004,0.27291 -0.008,0.31731 -0.0293,0.38241 -0.10021,0.31086 -0.43308,0.51103 -1.0188,0.61268 -0.15241,0.0264 -0.45633,0.0375 -0.59777,0.0217 z m 1.11475,-0.47811 c 0.0516,-0.0157 0.12489,-0.0836 0.15019,-0.13924 0.0407,-0.0893 0.0179,-0.22464 -0.0504,-0.29895 -0.0352,-0.0384 -0.13034,-0.0804 -0.1821,-0.0805 -0.10545,-2.3e-4 -0.2132,0.069 -0.25065,0.16116 -0.0483,0.1191 -0.004,0.26611 0.0998,0.33024 0.0817,0.0504 0.13633,0.0568 0.23325,0.0274 z m -3.15783,-1.08558 c -0.28142,-0.0741 -0.46977,-0.31034 -0.56802,-0.71265 -0.0736,-0.30109 -0.0857,-0.40131 -0.0854,-0.70354 2.2e-4,-0.23736 0.004,-0.29814 0.0257,-0.41925 0.0463,-0.25767 0.0881,-0.40507 0.15117,-0.53255 0.0517,-0.10467 0.0718,-0.13197 0.16751,-0.22703 0.12245,-0.12176 0.22836,-0.18364 0.39195,-0.22899 0.0901,-0.025 0.0965,-0.0253 1.13268,-0.0285 0.80215,-0.002 1.04405,-0.006 1.05077,-0.0172 0.0139,-0.0219 0.011,-0.13815 -0.004,-0.15313 -0.009,-0.009 -0.18301,-0.0136 -0.70797,-0.0136 h -0.69436 l -0.007,-0.03 c -0.0139,-0.0556 0.004,-0.67241 0.0227,-0.75379 0.0506,-0.2283 0.19526,-0.3612 0.48292,-0.44389 0.38736,-0.11132 1.11544,-0.13278 1.60765,-0.0474 0.35519,0.0616 0.61908,0.27768 0.70091,0.57386 0.0182,0.0657 0.0199,0.14191 0.0199,0.84276 0,0.86044 0.002,0.83081 -0.0811,1.00278 -0.0575,0.1183 -0.1915,0.25227 -0.3097,0.30967 -0.15912,0.0772 -0.13776,0.0757 -0.97432,0.0757 -0.45483,0 -0.7916,0.004 -0.84834,0.0118 -0.36229,0.0453 -0.64325,0.28137 -0.76179,0.63974 -0.0247,0.0749 -0.0266,0.10082 -0.0325,0.4759 l -0.006,0.39659 -0.29461,0.002 c -0.25919,0.002 -0.30456,-3.3e-4 -0.37742,-0.0195 z m 1.61265,-3.43907 c 0.14781,-0.092 0.16469,-0.30707 0.0332,-0.4228 -0.0837,-0.0738 -0.18467,-0.0891 -0.28265,-0.0428 -0.0676,0.0319 -0.0983,0.0631 -0.12936,0.1317 -0.0447,0.0985 -0.0256,0.21584 0.0478,0.29315 0.0568,0.0598 0.11411,0.0822 0.2019,0.078 0.0597,-0.002 0.086,-0.009 0.12911,-0.0371 z"
       id="path1263"
       inkscape:connector-curvature="0" />
    <rect
       y="40.265121"
       x="201.56363"
       height="10.065856"
       width="67.187881"
       id="rect1215"
       style="opacity:1;fill:#ffffff;fill-opacity:1;stroke:none;stroke-width:0.26458332;stroke-linejoin:miter;stroke-miterlimit:4;stroke-dasharray:none;stroke-dashoffset:0;stroke-opacity:1" />
    <text
       transform="scale(0.98377558,1.016492)"
       id="text1245"
       y="46.08485"
       x="226.33411"
       style="font-style:normal;font-variant:normal;font-weight:normal;font-stretch:normal;font-size:4.61663866px;line-height:1.25;font-family:'Yu Gothic';-inkscape-font-specification:'Yu Gothic';letter-spacing:0px;word-spacing:0px;fill:#3f425b;fill-opacity:1;stroke:none;stroke-width:0.11541598;stroke-opacity:1"
       xml:space="preserve"><tspan
         style="font-style:normal;font-variant:normal;font-weight:normal;font-stretch:normal;font-family:'Yu Gothic';-inkscape-font-specification:'Yu Gothic';fill:#3f425b;fill-opacity:1;stroke:none;stroke-width:0.11541598;stroke-opacity:1"
         y="46.08485"
         x="226.33411"
         id="tspan1243"
         sodipodi:role="line">map_utils.py</tspan></text>
    <path
       inkscape:connector-curvature="0"
       id="path1265"
       d="m 215.88336,48.25808 c -0.1269,-0.0141 -0.21678,-0.0308 -0.37393,-0.0699 -0.43913,-0.10863 -0.71146,-0.31081 -0.79656,-0.59137 -0.0149,-0.0492 -0.0183,-0.16569 -0.022,-0.755 -0.002,-0.44097 0,-0.73708 0.007,-0.80643 0.0205,-0.18805 0.0865,-0.32942 0.21257,-0.45514 0.0831,-0.0829 0.16409,-0.13404 0.27741,-0.17544 l 0.0831,-0.0304 0.84982,-0.005 0.84982,-0.005 0.0793,-0.0264 c 0.25322,-0.0846 0.45186,-0.25504 0.56044,-0.48124 0.0802,-0.16716 0.0827,-0.18384 0.09,-0.61905 l 0.006,-0.39093 0.27761,-0.003 c 0.15267,-0.002 0.3119,0.002 0.35384,0.008 0.31204,0.0479 0.50045,0.27763 0.61478,0.74952 0.0745,0.30754 0.10134,0.53823 0.0936,0.80257 -0.007,0.23937 -0.0317,0.37595 -0.11137,0.61806 -0.12958,0.39414 -0.26768,0.58544 -0.48049,0.66558 l -0.068,0.0256 -1.1331,0.005 -1.13309,0.005 -0.003,0.0878 -0.003,0.0878 h 0.69595 c 0.60497,0 0.6978,0.002 0.71008,0.017 0.011,0.013 0.0128,0.0892 0.008,0.32577 -0.004,0.27291 -0.008,0.31731 -0.0293,0.38241 -0.10021,0.31086 -0.43308,0.51103 -1.0188,0.61268 -0.15241,0.0264 -0.45633,0.0375 -0.59777,0.0217 z m 1.11475,-0.47811 c 0.0516,-0.0157 0.12489,-0.0836 0.15019,-0.13924 0.0407,-0.0893 0.0179,-0.22464 -0.0504,-0.29895 -0.0352,-0.0384 -0.13034,-0.0804 -0.1821,-0.0805 -0.10545,-2.3e-4 -0.2132,0.069 -0.25065,0.16116 -0.0483,0.1191 -0.004,0.26611 0.0998,0.33024 0.0817,0.0504 0.13633,0.0568 0.23325,0.0274 z m -3.15783,-1.08558 c -0.28142,-0.0741 -0.46977,-0.31034 -0.56802,-0.71265 -0.0736,-0.30109 -0.0857,-0.40131 -0.0854,-0.70354 2.2e-4,-0.23736 0.004,-0.29814 0.0257,-0.41925 0.0463,-0.25767 0.0881,-0.40507 0.15117,-0.53255 0.0517,-0.10467 0.0718,-0.13197 0.16751,-0.22703 0.12245,-0.12176 0.22836,-0.18364 0.39195,-0.22899 0.0901,-0.025 0.0965,-0.0253 1.13268,-0.0285 0.80215,-0.002 1.04405,-0.006 1.05077,-0.0172 0.0139,-0.0219 0.011,-0.13815 -0.004,-0.15313 -0.009,-0.009 -0.18301,-0.0136 -0.70797,-0.0136 h -0.69436 l -0.007,-0.03 c -0.0139,-0.0556 0.004,-0.67241 0.0227,-0.75379 0.0506,-0.2283 0.19526,-0.3612 0.48292,-0.44389 0.38736,-0.11132 1.11544,-0.13278 1.60765,-0.0474 0.35519,0.0616 0.61908,0.27768 0.70091,0.57386 0.0182,0.0657 0.0199,0.14191 0.0199,0.84276 0,0.86044 0.002,0.83081 -0.0811,1.00278 -0.0575,0.1183 -0.1915,0.25227 -0.3097,0.30967 -0.15912,0.0772 -0.13776,0.0757 -0.97432,0.0757 -0.45483,0 -0.7916,0.004 -0.84834,0.0118 -0.36229,0.0453 -0.64325,0.28137 -0.76179,0.63974 -0.0247,0.0749 -0.0266,0.10082 -0.0325,0.4759 l -0.006,0.39659 -0.29461,0.002 c -0.25919,0.002 -0.30456,-3.3e-4 -0.37742,-0.0195 z m 1.61265,-3.43907 c 0.14781,-0.092 0.16469,-0.30707 0.0332,-0.4228 -0.0837,-0.0738 -0.18467,-0.0891 -0.28265,-0.0428 -0.0676,0.0319 -0.0983,0.0631 -0.12936,0.1317 -0.0447,0.0985 -0.0256,0.21584 0.0478,0.29315 0.0568,0.0598 0.11411,0.0822 0.2019,0.078 0.0597,-0.002 0.086,-0.009 0.12911,-0.0371 z"
       style="opacity:1;fill:#028297;stroke-width:0.01133101" />
    <rect
       style="opacity:1;fill:#ffffff;fill-opacity:1;stroke:none;stroke-width:0.26458332;stroke-linejoin:miter;stroke-miterlimit:4;stroke-dasharray:none;stroke-dashoffset:0;stroke-opacity:1"
       id="rect1269"
       width="67.187881"
       height="10.065856"
       x="201.56363"
       y="70.461288" />
    <text
       xml:space="preserve"
       style="font-style:normal;font-variant:normal;font-weight:normal;font-stretch:normal;font-size:4.61663866px;line-height:1.25;font-family:'Yu Gothic';-inkscape-font-specification:'Yu Gothic';letter-spacing:0px;word-spacing:0px;fill:#3f425b;fill-opacity:1;stroke:none;stroke-width:0.11541598;stroke-opacity:1;"
       x="226.33414"
       y="75.665855"
       id="text1273"
       transform="scale(0.98377558,1.016492)"><tspan
         sodipodi:role="line"
         id="tspan1271"
         x="226.33414"
         y="75.665855"
         style="font-style:normal;font-variant:normal;font-weight:normal;font-stretch:normal;font-family:'Yu Gothic';-inkscape-font-specification:'Yu Gothic';fill:#3f425b;fill-opacity:1;stroke:none;stroke-width:0.11541598;stroke-opacity:1;">platformer.py</tspan></text>
    <path
       style="opacity:1;fill:#028297;stroke:#3f425b;stroke-width:0.01133101;stroke-opacity:1"
       d="m 215.88336,78.454254 c -0.1269,-0.0141 -0.21678,-0.0308 -0.37393,-0.0699 -0.43913,-0.10863 -0.71146,-0.31081 -0.79656,-0.59137 -0.0149,-0.0492 -0.0183,-0.16569 -0.022,-0.755 -0.002,-0.44097 0,-0.73708 0.007,-0.80643 0.0205,-0.18805 0.0865,-0.32942 0.21257,-0.45514 0.0831,-0.0829 0.16409,-0.13404 0.27741,-0.17544 l 0.0831,-0.0304 0.84982,-0.005 0.84982,-0.005 0.0793,-0.0264 c 0.25322,-0.0846 0.45186,-0.25504 0.56044,-0.48124 0.0802,-0.16716 0.0827,-0.18384 0.09,-0.61905 l 0.006,-0.39093 0.27761,-0.003 c 0.15267,-0.002 0.3119,0.002 0.35384,0.008 0.31204,0.0479 0.50045,0.27763 0.61478,0.74952 0.0745,0.30754 0.10134,0.53823 0.0936,0.80257 -0.007,0.23937 -0.0317,0.37595 -0.11137,0.61806 -0.12958,0.39414 -0.26768,0.58544 -0.48049,0.66558 l -0.068,0.0256 -1.1331,0.005 -1.13309,0.005 -0.003,0.0878 -0.003,0.0878 h 0.69595 c 0.60497,0 0.6978,0.002 0.71008,0.017 0.011,0.013 0.0128,0.0892 0.008,0.32577 -0.004,0.27291 -0.008,0.31731 -0.0293,0.38241 -0.10021,0.31086 -0.43308,0.51103 -1.0188,0.61268 -0.15241,0.0264 -0.45633,0.0375 -0.59777,0.0217 z m 1.11475,-0.47811 c 0.0516,-0.0157 0.12489,-0.0836 0.15019,-0.13924 0.0407,-0.0893 0.0179,-0.22464 -0.0504,-0.29895 -0.0352,-0.0384 -0.13034,-0.0804 -0.1821,-0.0805 -0.10545,-2.3e-4 -0.2132,0.069 -0.25065,0.16116 -0.0483,0.1191 -0.004,0.26611 0.0998,0.33024 0.0817,0.0504 0.13633,0.0568 0.23325,0.0274 z m -3.15783,-1.08558 c -0.28142,-0.0741 -0.46977,-0.31034 -0.56802,-0.71265 -0.0736,-0.30109 -0.0857,-0.40131 -0.0854,-0.70354 2.2e-4,-0.23736 0.004,-0.29814 0.0257,-0.41925 0.0463,-0.25767 0.0881,-0.40507 0.15117,-0.53255 0.0517,-0.10467 0.0718,-0.13197 0.16751,-0.22703 0.12245,-0.12176 0.22836,-0.18364 0.39195,-0.22899 0.0901,-0.025 0.0965,-0.0253 1.13268,-0.0285 0.80215,-0.002 1.04405,-0.006 1.05077,-0.0172 0.0139,-0.0219 0.011,-0.13815 -0.004,-0.15313 -0.009,-0.009 -0.18301,-0.0136 -0.70797,-0.0136 h -0.69436 l -0.007,-0.03 c -0.0139,-0.0556 0.004,-0.67241 0.0227,-0.75379 0.0506,-0.2283 0.19526,-0.3612 0.48292,-0.44389 0.38736,-0.11132 1.11544,-0.13278 1.60765,-0.0474 0.35519,0.0616 0.61908,0.27768 0.70091,0.57386 0.0182,0.0657 0.0199,0.14191 0.0199,0.84276 0,0.86044 0.002,0.83081 -0.0811,1.00278 -0.0575,0.1183 -0.1915,0.25227 -0.3097,0.30967 -0.15912,0.0772 -0.13776,0.0757 -0.97432,0.0757 -0.45483,0 -0.7916,0.004 -0.84834,0.0118 -0.36229,0.0453 -0.64325,0.28137 -0.76179,0.63974 -0.0247,0.0749 -0.0266,0.10082 -0.0325,0.4759 l -0.006,0.39659 -0.29461,0.002 c -0.25919,0.002 -0.30456,-3.3e-4 -0.37742,-0.0195 z m 1.61265,-3.43907 c 0.14781,-0.092 0.16469,-0.30707 0.0332,-0.4228 -0.0837,-0.0738 -0.18467,-0.0891 -0.28265,-0.0428 -0.0676,0.0319 -0.0983,0.0631 -0.12936,0.1317 -0.0447,0.0985 -0.0256,0.21584 0.0478,0.29315 0.0568,0.0598 0.11411,0.0822 0.2019,0.078 0.0597,-0.002 0.086,-0.009 0.12911,-0.0371 z"
       id="path1275"
       inkscape:connector-curvature="0" />
    <path
       sodipodi:nodetypes="ccccccc"
       inkscape:connector-curvature="0"
       id="path1318"
       d="m 16.736535,16.619384 c 0,0.1152 -0.0458,0.22568 -0.12723,0.30715 -0.0815,0.0815 -0.19195,0.12723 -0.30714,0.12723 h -3.47502 c -0.1152,0 -0.22569,-0.0458 -0.30715,-0.12723 -0.0815,-0.0815 -0.12723,-0.19195 -0.12723,-0.30715 v -3.04063 c 0,-0.1152 0.0458,-0.22569 0.12723,-0.30716 0.0815,-0.0815 0.19195,-0.12722 0.30715,-0.12722 h 1.08594 l 0.43437,0.65156 h 1.95471 c 0.11519,0 0.22568,0.0458 0.30714,0.12723 0.0815,0.0815 0.12723,0.19194 0.12723,0.30715 z"
       style="fill:none;stroke:#3f425b;stroke-width:0.40000001;stroke-linecap:round;stroke-linejoin:round;stroke-miterlimit:4;stroke-dasharray:none;stroke-opacity:1" />
    <path
       style="fill:none;stroke:#3f425b;stroke-width:0.40000001;stroke-linecap:round;stroke-linejoin:round;stroke-miterlimit:4;stroke-dasharray:none;stroke-opacity:1"
       d="m 16.736535,26.685234 c 0,0.1152 -0.0458,0.22568 -0.12723,0.30715 -0.0815,0.0815 -0.19195,0.12723 -0.30714,0.12723 h -3.47502 c -0.1152,0 -0.22569,-0.0458 -0.30715,-0.12723 -0.0815,-0.0815 -0.12723,-0.19195 -0.12723,-0.30715 v -3.04063 c 0,-0.1152 0.0458,-0.22569 0.12723,-0.30716 0.0815,-0.0815 0.19195,-0.12722 0.30715,-0.12722 h 1.08594 l 0.43437,0.65156 h 1.95471 c 0.11519,0 0.22568,0.0458 0.30714,0.12723 0.0815,0.0815 0.12723,0.19194 0.12723,0.30715 z"
       id="path1320"
       inkscape:connector-curvature="0"
       sodipodi:nodetypes="ccccccc" />
    <path
       sodipodi:nodetypes="ccccccc"
       inkscape:connector-curvature="0"
       id="path1322"
       d="m 16.736535,36.751094 c 0,0.1152 -0.0458,0.22568 -0.12723,0.30715 -0.0815,0.0815 -0.19195,0.12723 -0.30714,0.12723 h -3.47502 c -0.1152,0 -0.22569,-0.0458 -0.30715,-0.12723 -0.0815,-0.0815 -0.12723,-0.19195 -0.12723,-0.30715 v -3.04063 c 0,-0.1152 0.0458,-0.22569 0.12723,-0.30716 0.0815,-0.0815 0.19195,-0.12722 0.30715,-0.12722 h 1.08594 l 0.43437,0.65156 h 1.95471 c 0.11519,0 0.22568,0.0458 0.30714,0.12723 0.0815,0.0815 0.12723,0.19194 0.12723,0.30715 z"
       style="fill:none;stroke:#3f425b;stroke-width:0.40000001;stroke-linecap:round;stroke-linejoin:round;stroke-miterlimit:4;stroke-dasharray:none;stroke-opacity:1" />
    <path
       style="fill:none;stroke:#3f425b;stroke-width:0.40000001;stroke-linecap:round;stroke-linejoin:round;stroke-miterlimit:4;stroke-dasharray:none;stroke-opacity:1"
       d="m 16.736535,46.816954 c 0,0.1152 -0.0458,0.22568 -0.12723,0.30715 -0.0815,0.0815 -0.19195,0.12723 -0.30714,0.12723 h -3.47502 c -0.1152,0 -0.22569,-0.0458 -0.30715,-0.12723 -0.0815,-0.0815 -0.12723,-0.19195 -0.12723,-0.30715 v -3.04063 c 0,-0.1152 0.0458,-0.22569 0.12723,-0.30716 0.0815,-0.0815 0.19195,-0.12722 0.30715,-0.12722 h 1.08594 l 0.43437,0.65156 h 1.95471 c 0.11519,0 0.22568,0.0458 0.30714,0.12723 0.0815,0.0815 0.12723,0.19194 0.12723,0.30715 z"
       id="path1324"
       inkscape:connector-curvature="0"
       sodipodi:nodetypes="ccccccc" />
    <path
       sodipodi:nodetypes="ccccccc"
       inkscape:connector-curvature="0"
       id="path1326"
       d="m 151.13994,16.619384 c 0,0.1152 -0.0458,0.22568 -0.12723,0.30715 -0.0815,0.0815 -0.19195,0.12723 -0.30714,0.12723 h -3.47502 c -0.1152,0 -0.22569,-0.0458 -0.30715,-0.12723 -0.0815,-0.0815 -0.12723,-0.19195 -0.12723,-0.30715 v -3.04063 c 0,-0.1152 0.0458,-0.22569 0.12723,-0.30716 0.0815,-0.0815 0.19195,-0.12722 0.30715,-0.12722 h 1.08594 l 0.43437,0.65156 h 1.95471 c 0.11519,0 0.22568,0.0458 0.30714,0.12723 0.0815,0.0815 0.12723,0.19194 0.12723,0.30715 z"
       style="fill:none;stroke:#3f425b;stroke-width:0.40000001;stroke-linecap:round;stroke-linejoin:round;stroke-miterlimit:4;stroke-dasharray:none;stroke-opacity:1" />
    <rect
       style="opacity:1;fill:#ffffff;fill-opacity:1;stroke:none;stroke-width:0.26458332;stroke-linejoin:miter;stroke-miterlimit:4;stroke-dasharray:none;stroke-dashoffset:0;stroke-opacity:1"
       id="rect1209"
       width="67.187881"
       height="10.065856"
       x="201.56363"
       y="10.066146" />
    <path
       style="fill:none;stroke:#3f425b;stroke-width:0.40000001;stroke-linecap:round;stroke-linejoin:round;stroke-miterlimit:4;stroke-dasharray:none;stroke-opacity:1"
       d="m 208.75372,16.516484 1.44104,-1.44102 -1.39379,-1.3938"
       id="path1227"
       inkscape:connector-curvature="0" />
    <text
       xml:space="preserve"
       style="font-style:normal;font-variant:normal;font-weight:normal;font-stretch:normal;font-size:4.6927762px;line-height:1.25;font-family:'Yu Gothic';-inkscape-font-specification:'Yu Gothic';letter-spacing:0px;word-spacing:0px;fill:#3f425b;fill-opacity:1;stroke:none;stroke-width:0.11731942;stroke-opacity:1"
       x="222.923"
       y="16.518599"
       id="text1233"><tspan
         sodipodi:role="line"
         id="tspan1231"
         x="222.923"
         y="16.518599"
         style="font-style:normal;font-variant:normal;font-weight:normal;font-stretch:normal;font-family:'Yu Gothic';-inkscape-font-specification:'Yu Gothic';fill:#3f425b;fill-opacity:1;stroke:none;stroke-width:0.11731942;stroke-opacity:1">__pycache__</tspan></text>
    <path
       style="fill:none;stroke:#3f425b;stroke-width:0.40000001;stroke-linecap:round;stroke-linejoin:round;stroke-miterlimit:4;stroke-dasharray:none;stroke-opacity:1"
       d="m 218.28769,16.619384 c 0,0.1152 -0.0458,0.22568 -0.12723,0.30715 -0.0815,0.0815 -0.19195,0.12723 -0.30714,0.12723 h -3.47502 c -0.1152,0 -0.22569,-0.0458 -0.30715,-0.12723 -0.0815,-0.0815 -0.12723,-0.19195 -0.12723,-0.30715 v -3.04063 c 0,-0.1152 0.0458,-0.22569 0.12723,-0.30716 0.0815,-0.0815 0.19195,-0.12722 0.30715,-0.12722 h 1.08594 l 0.43437,0.65156 h 1.95471 c 0.11519,0 0.22568,0.0458 0.30714,0.12723 0.0815,0.0815 0.12723,0.19194 0.12723,0.30715 z"
       id="path1330"
       inkscape:connector-curvature="0"
       sodipodi:nodetypes="ccccccc" />
    <rect
       y="80.527145"
       x="201.56363"
       height="10.065856"
       width="67.187881"
       id="rect1310"
       style="opacity:1;fill:#ffffff;fill-opacity:1;stroke:none;stroke-width:0.26458332;stroke-linejoin:miter;stroke-miterlimit:4;stroke-dasharray:none;stroke-dashoffset:0;stroke-opacity:1" />
    <text
       transform="scale(0.98377558,1.016492)"
       id="text1314"
       y="85.568382"
       x="226.33414"
       style="font-style:normal;font-variant:normal;font-weight:normal;font-stretch:normal;font-size:4.61663866px;line-height:1.25;font-family:'Yu Gothic';-inkscape-font-specification:'Yu Gothic';letter-spacing:0px;word-spacing:0px;fill:#3f425b;fill-opacity:1;stroke:none;stroke-width:0.11541598;stroke-opacity:1;"
       xml:space="preserve"><tspan
         style="font-style:normal;font-variant:normal;font-weight:normal;font-stretch:normal;font-family:'Yu Gothic';-inkscape-font-specification:'Yu Gothic';fill:#3f425b;fill-opacity:1;stroke:none;stroke-width:0.11541598;stroke-opacity:1;"
         y="85.568382"
         x="226.33414"
         id="tspan1312"
         sodipodi:role="line">random_backgro...</tspan></text>
    <path
       style="fill:none;stroke:#3f425b;stroke-width:0.40000001;stroke-linecap:butt;stroke-linejoin:miter;stroke-miterlimit:4;stroke-dasharray:none;stroke-opacity:1"
       d="m 214.60391,87.785154 h 3.46124 c 0.27309,0 0.49446,-0.22137 0.49446,-0.49446 v -3.46124 c 0,-0.27307 -0.22137,-0.49446 -0.49446,-0.49446 h -3.46124 c -0.27307,0 -0.49446,0.22139 -0.49446,0.49446 v 3.46124 c 0,0.27309 0.22139,0.49446 0.49446,0.49446 z m 0,0 2.71955,-2.71954 1.23615,1.23616 m -2.71954,-1.60701 c 0,0.20481 -0.16604,0.37085 -0.37084,0.37085 -0.20482,0 -0.37086,-0.16604 -0.37086,-0.37085 0,-0.20481 0.16604,-0.37084 0.37086,-0.37084 0.2048,0 0.37084,0.16603 0.37084,0.37084 z"
       id="path1338"
       inkscape:connector-curvature="0" />
    <rect
       style="opacity:1;fill:#ffffff;fill-opacity:1;stroke:none;stroke-width:0.26458332;stroke-linejoin:miter;stroke-miterlimit:4;stroke-dasharray:none;stroke-dashoffset:0;stroke-opacity:1"
       id="rect1289"
       width="67.187881"
       height="10.065856"
       x="201.56363"
       y="30.197859" />
    <text
       xml:space="preserve"
       style="font-style:normal;font-variant:normal;font-weight:normal;font-stretch:normal;font-size:4.6927762px;line-height:1.25;font-family:'Yu Gothic';-inkscape-font-specification:'Yu Gothic';letter-spacing:0px;word-spacing:0px;fill:#3f425b;fill-opacity:1;stroke:none;stroke-width:0.11731942;stroke-opacity:1"
       x="222.923"
       y="36.554062"
       id="text1297"><tspan
         sodipodi:role="line"
         id="tspan1295"
         x="222.923"
         y="36.554062"
         style="font-style:normal;font-variant:normal;font-weight:normal;font-stretch:normal;font-family:'Yu Gothic';-inkscape-font-specification:'Yu Gothic';fill:#3f425b;fill-opacity:1;stroke:none;stroke-width:0.11731942;stroke-opacity:1">images.txt</tspan></text>
    <path
       style="fill:#3f425b;fill-opacity:1;stroke:none;stroke-width:0.06431229px;stroke-linecap:butt;stroke-linejoin:miter;stroke-opacity:1"
       d="m 213.85255,33.164724 v 0.4861 h 4.37523 v -0.4861 z m 0,1.21539 v 0.48611 h 2.67385 v -0.48611 z m 0,1.21527 v 0.48612 h 4.37523 v -0.48612 z m 0,1.2154 v 0.4861 h 3.40302 v -0.4861 z"
       id="path1340"
       inkscape:connector-curvature="0" />
    <rect
       y="20.132002"
       x="201.56363"
       height="10.065856"
       width="67.187881"
       id="rect1279"
       style="opacity:1;fill:#ffffff;fill-opacity:1;stroke:none;stroke-width:0.26458332;stroke-linejoin:miter;stroke-miterlimit:4;stroke-dasharray:none;stroke-dashoffset:0;stroke-opacity:1" />
    <text
       id="text1287"
       y="26.980848"
       x="222.923"
       style="font-style:normal;font-variant:normal;font-weight:normal;font-stretch:normal;font-size:4.6927762px;line-height:1.25;font-family:'Yu Gothic';-inkscape-font-specification:'Yu Gothic';letter-spacing:0px;word-spacing:0px;fill:#3f425b;fill-opacity:1;stroke:none;stroke-width:0.11731942;stroke-opacity:1"
       xml:space="preserve"><tspan
         style="font-style:normal;font-variant:normal;font-weight:normal;font-stretch:normal;font-family:'Yu Gothic';-inkscape-font-specification:'Yu Gothic';fill:#3f425b;fill-opacity:1;stroke:none;stroke-width:0.11731942;stroke-opacity:1"
         y="26.980848"
         x="222.923"
         id="tspan1285"
         sodipodi:role="line">data.txt</tspan></text>
    <path
       inkscape:connector-curvature="0"
       id="path1349"
       d="m 213.85255,23.098854 v 0.4861 h 4.37523 v -0.4861 z m 0,1.21539 v 0.48611 h 2.67385 v -0.48611 z m 0,1.21527 v 0.48612 h 4.37523 v -0.48612 z m 0,1.2154 v 0.4861 h 3.40302 v -0.4861 z"
       style="fill:#3f425b;fill-opacity:1;stroke:none;stroke-width:0.06431229px;stroke-linecap:butt;stroke-linejoin:miter;stroke-opacity:1" />
  </g>
  <path
     style="fill:#3f425b;fill-opacity:1;stroke:none;stroke-width:0.00785084px;stroke-linecap:butt;stroke-linejoin:miter;stroke-opacity:1"
     d="m 79.091925,33.331754 c -0.24401,0 -0.44509,0.20108 -0.44509,0.44509 v 2.90788 c 0,0.24401 0.20108,0.44509 0.44509,0.44509 h 5.2817 c 0.24401,0 0.44508,-0.20108 0.44508,-0.44509 v -2.90788 c 0,-0.24401 -0.20107,-0.44509 -0.44508,-0.44509 z m 0,0.29671 h 5.2817 c 0.0847,0 0.14836,0.0636 0.14836,0.14838 v 2.90788 c 0,0.0847 -0.0636,0.14838 -0.14836,0.14838 h -5.2817 c -0.0848,0 -0.14837,-0.0636 -0.14837,-0.14838 v -2.90788 c 0,-0.0848 0.0636,-0.14838 0.14837,-0.14838 z m 0.44508,0.59346 v 2.01772 h 0.59346 v -1.15722 l 0.59344,0.74181 0.59345,-0.74181 v 1.15722 h 0.59345 v -2.01772 h -0.59345 l -0.59345,0.7418 -0.59344,-0.7418 z m 3.41233,0 v 1.03853 h -0.59343 l 0.89015,0.97919 0.89018,-0.97919 h -0.59345 v -1.03853 z"
     id="path1124"
     inkscape:connector-curvature="0" />
  <path
     inkscape:connector-curvature="0"
     id="path1195"
     d="m 146.27981,33.331754 c -0.24401,0 -0.44509,0.20108 -0.44509,0.44509 v 2.90788 c 0,0.24401 0.20108,0.44509 0.44509,0.44509 h 5.2817 c 0.24401,0 0.44508,-0.20108 0.44508,-0.44509 v -2.90788 c 0,-0.24401 -0.20107,-0.44509 -0.44508,-0.44509 z m 0,0.29671 h 5.2817 c 0.0847,0 0.14836,0.0636 0.14836,0.14838 v 2.90788 c 0,0.0847 -0.0636,0.14838 -0.14836,0.14838 h -5.2817 c -0.0848,0 -0.14837,-0.0636 -0.14837,-0.14838 v -2.90788 c 0,-0.0848 0.0636,-0.14838 0.14837,-0.14838 z m 0.44508,0.59346 v 2.01772 h 0.59346 v -1.15722 l 0.59344,0.74181 0.59345,-0.74181 v 1.15722 h 0.59345 v -2.01772 h -0.59345 l -0.59345,0.7418 -0.59344,-0.7418 z m 3.41233,0 v 1.03853 h -0.59343 l 0.89015,0.97919 0.89018,-0.97919 h -0.59345 v -1.03853 z"
     style="fill:#3f425b;fill-opacity:1;stroke:none;stroke-width:0.00785084px;stroke-linecap:butt;stroke-linejoin:miter;stroke-opacity:1" />
</svg>
